<svg xmlns="http://www.w3.org/2000/svg" xmlns:xlink="http://www.w3.org/1999/xlink" width="1140" height="434.2"><rect width="1140" height="434.2" rx="0" ry="0" class="a"/><svg height="434.2" viewBox="0 0 114 43.42" width="1140" xmlns="http://www.w3.org/2000/svg" xmlns:xlink="http://www.w3.org/1999/xlink"><style>@keyframes g{0%{transform:translateX(0)}.85%{transform:translateX(-456px)}.86%{transform:translateX(-570px)}1.13%{transform:translateX(-684px)}1.45%{transform:translateX(-798px)}4.17%{transform:translateX(-912px)}4.45%{transform:translateX(-1026px)}4.72%{transform:translateX(-1140px)}5.49%{transform:translateX(-1254px)}5.76%{transform:translateX(-1368px)}6.03%{transform:translateX(-1482px)}7.95%{transform:translateX(-1596px)}8.57%{transform:translateX(-1710px)}8.88%{transform:translateX(-1824px)}9.16%{transform:translateX(-1938px)}9.71%{transform:translateX(-2052px)}9.98%{transform:translateX(-2166px)}10.26%{transform:translateX(-2280px)}10.94%{transform:translateX(-2394px)}11.21%{transform:translateX(-2508px)}12.83%{transform:translateX(-2622px)}14.6%{transform:translateX(-2736px)}15.1%{transform:translateX(-2850px)}15.38%{transform:translateX(-2964px)}15.85%{transform:translateX(-3078px)}16.21%{transform:translateX(-3192px)}16.9%{transform:translateX(-3306px)}18.44%{transform:translateX(-3420px)}21.17%{transform:translateX(-3534px)}22.21%{transform:translateX(-3648px)}23.15%{transform:translateX(-3762px)}24.75%{transform:translateX(-3876px)}25.14%{transform:translateX(-3990px)}25.41%{transform:translateX(-4104px)}26.11%{transform:translateX(-4218px)}28.83%{transform:translateX(-4332px)}29.11%{transform:translateX(-4446px)}30.24%{transform:translateX(-4560px)}32.97%{transform:translateX(-4674px)}33.41%{transform:translateX(-4788px)}35.24%{transform:translateX(-4902px)}36.34%{transform:translateX(-5016px)}36.61%{transform:translateX(-5130px)}36.89%{transform:translateX(-5244px)}37.16%{transform:translateX(-5358px)}37.43%{transform:translateX(-5472px)}39.78%{transform:translateX(-5586px)}40.05%{transform:translateX(-5700px)}40.32%{transform:translateX(-5814px)}41.44%{transform:translateX(-5928px)}41.72%{transform:translateX(-6042px)}42.67%{transform:translateX(-6156px)}43.17%{transform:translateX(-6270px)}45.86%{transform:translateX(-6384px)}46.14%{transform:translateX(-6498px)}47.72%{transform:translateX(-6612px)}47.99%{transform:translateX(-6726px)}50.71%{transform:translateX(-6840px)}50.72%{transform:translateX(-6954px)}51%{transform:translateX(-7296px)}52.1%{transform:translateX(-7410px)}53.19%{transform:translateX(-7524px)}54.29%{transform:translateX(-7638px)}55.38%{transform:translateX(-7752px)}56.47%{transform:translateX(-7866px)}57.56%{transform:translateX(-7980px)}58.65%{transform:translateX(-8094px)}59.75%{transform:translateX(-8208px)}60.84%{transform:translateX(-8322px)}61.94%{transform:translateX(-8436px)}63.03%{transform:translateX(-8550px)}64.12%{transform:translateX(-8664px)}65.21%{transform:translateX(-8778px)}66.31%{transform:translateX(-8892px)}67.39%{transform:translateX(-9006px)}68.49%{transform:translateX(-9120px)}69.58%{transform:translateX(-9234px)}69.84%{transform:translateX(-9348px)}69.87%{transform:translateX(-9576px)}69.88%{transform:translateX(-10032px)}80.78%{transform:translateX(-10146px)}81.06%{transform:translateX(-10260px)}81.52%{transform:translateX(-10374px)}82.19%{transform:translateX(-10488px)}84.91%{transform:translateX(-10602px)}85.19%{transform:translateX(-10716px)}85.85%{transform:translateX(-10830px)}86.22%{transform:translateX(-10944px)}87.15%{transform:translateX(-11058px)}87.87%{transform:translateX(-11172px)}88.15%{transform:translateX(-11286px)}88.6%{transform:translateX(-11400px)}88.88%{transform:translateX(-11742px)}89.09%{transform:translateX(-12084px)}89.1%{transform:translateX(-12426px)}to{transform:translateX(-12540px)}}.a{fill:#282d35}.c,.d,.i{fill:#a8cc8c;white-space:pre}.d,.i{fill:#b9c0cb}.i{fill:#d290e4}</style><g font-family="Monaco,Consolas,Menlo,'Bitstream Vera Sans Mono','Powerline Symbols',monospace" font-size="1.67"><defs><symbol id="1"><text y="1.67" class="c">$</text></symbol><symbol id="2"><text y="1.67" class="c">$</text><text x="2.004" y="1.67" class="d">k6x</text></symbol><symbol id="3"><text y="1.67" class="c">$</text><text x="2.004" y="1.67" class="d">k6x</text><text x="6.012" y="1.67" class="d">build</text></symbol><symbol id="4"><text y="1.67" class="c">$</text><text x="2.004" y="1.67" class="d">k6x</text><text x="6.012" y="1.67" class="d">build</text><text x="12.024" y="1.67" class="d">--with</text></symbol><symbol id="5"><text y="1.67" class="c">$</text><text x="2.004" y="1.67" class="d">k6x</text><text x="6.012" y="1.67" class="d">build</text><text x="12.024" y="1.67" class="d">--with</text><text x="19.038" y="1.67" class="d">dashboard</text></symbol><symbol id="6"><text y="1.67" class="c">$</text><text x="2.004" y="1.67" class="d">k6x</text><text x="6.012" y="1.67" class="d">build</text><text x="12.024" y="1.67" class="d">--with</text><text x="19.038" y="1.67" class="d">dashboard</text><text x="29.058" y="1.67" class="d">--with</text></symbol><symbol id="7"><text y="1.67" class="c">$</text><text x="2.004" y="1.67" class="d">k6x</text><text x="6.012" y="1.67" class="d">build</text><text x="12.024" y="1.67" class="d">--with</text><text x="19.038" y="1.67" class="d">dashboard</text><text x="29.058" y="1.67" class="d">--with</text><text x="36.072" y="1.67" class="d">k6/x/faker</text></symbol><symbol id="8"><text y="1.67" class="c">$</text><text x="2.004" y="1.67" class="d">k6x</text><text x="6.012" y="1.67" class="d">build</text><text x="12.024" y="1.67" class="d">--with</text><text x="19.038" y="1.67" class="d">dashboard</text><text x="29.058" y="1.67" class="d">--with</text><text x="36.072" y="1.67" class="d">k6/x/faker</text><text x="47.094" y="1.67" class="d">--with</text></symbol><symbol id="9"><text y="1.67" class="c">$</text><text x="2.004" y="1.67" class="d">k6x</text><text x="6.012" y="1.67" class="d">build</text><text x="12.024" y="1.67" class="d">--with</text><text x="19.038" y="1.67" class="d">dashboard</text><text x="29.058" y="1.67" class="d">--with</text><text x="36.072" y="1.67" class="d">k6/x/faker</text><text x="47.094" y="1.67" class="d">--with</text><text x="54.108" y="1.67" class="d">top</text></symbol><symbol id="10"><text y="1.67" class="c">$</text><text x="2.004" y="1.67" class="d">./k6</text></symbol><symbol id="11"><text y="1.67" class="c">$</text><text x="2.004" y="1.67" class="d">./k6</text><text x="7.014" y="1.67" class="d">version</text></symbol><symbol id="12"><text y="1.67" class="d">k6</text><text x="3.006" y="1.67" class="d">v0.47.0</text><text x="11.022" y="1.67" class="d">(go1.20.9,</text><text x="22.044" y="1.67" class="d">linux/amd64)</text></symbol><symbol id="13"><text y="1.67" class="d">Extensions:</text></symbol><symbol id="14"><text x="2.004" y="1.67" class="d">github.com/grafana/xk6-dashboard</text><text x="35.07" y="1.67" class="d">v0.6.0,</text><text x="43.086" y="1.67" class="d">dashboard</text><text x="53.106" y="1.67" class="d">[output]</text></symbol><symbol id="15"><text x="2.004" y="1.67" class="d">github.com/szkiba/xk6-faker</text><text x="30.06" y="1.67" class="d">v0.2.2,</text><text x="38.076" y="1.67" class="d">k6/x/faker</text><text x="49.098" y="1.67" class="d">[js]</text></symbol><symbol id="16"><text x="2.004" y="1.67" class="d">github.com/szkiba/xk6-top</text><text x="28.056" y="1.67" class="d">v0.1.1,</text><text x="36.072" y="1.67" class="d">top</text><text x="40.08" y="1.67" class="d">[output]</text></symbol><symbol id="a"><path fill="transparent" d="M0 0h114v21H0z"/></symbol><symbol id="b"><path fill="#6f7683" d="M0 0h1.102v2.171H0z"/></symbol></defs><path class="a" d="M0 0h114v43.42H0z"/><g style="animation-duration:18.356943s;animation-iteration-count:infinite;animation-name:g;animation-timing-function:steps(1,end)"><svg width="12654"><svg><use xlink:href="#a"/><use xlink:href="#b" x="-.004"/></svg><svg x="114"><use xlink:href="#a"/><use xlink:href="#b" x="-.004"/></svg><svg x="228"><use xlink:href="#a"/><use xlink:href="#b" x="-.004"/></svg><svg x="342"><use xlink:href="#a"/><use xlink:href="#b" x="1.996"/><use xlink:href="#1"/></svg><svg x="456"><use xlink:href="#a"/><use xlink:href="#b" x="1.996"/><use xlink:href="#1"/></svg><svg x="570"><use xlink:href="#a"/><use xlink:href="#b" x="2.996"/><text y="1.67" class="c">$</text><text x="2.004" y="1.67" class="d">k</text></svg><svg x="684"><use xlink:href="#a"/><use xlink:href="#b" x="3.996"/><text y="1.67" class="c">$</text><text x="2.004" y="1.67" class="d">k6</text></svg><svg x="798"><use xlink:href="#a"/><use xlink:href="#b" x="4.996"/><use xlink:href="#2"/></svg><svg x="912"><use xlink:href="#a"/><use xlink:href="#b" x="5.996"/><use xlink:href="#2"/></svg><svg x="1026"><use xlink:href="#a"/><use xlink:href="#b" x="6.996"/><text y="1.67" class="c">$</text><text x="2.004" y="1.67" class="d">k6x</text><text x="6.012" y="1.67" class="d">b</text></svg><svg x="1140"><use xlink:href="#a"/><use xlink:href="#b" x="7.996"/><text y="1.67" class="c">$</text><text x="2.004" y="1.67" class="d">k6x</text><text x="6.012" y="1.67" class="d">bu</text></svg><svg x="1254"><use xlink:href="#a"/><use xlink:href="#b" x="8.996"/><text y="1.67" class="c">$</text><text x="2.004" y="1.67" class="d">k6x</text><text x="6.012" y="1.67" class="d">bui</text></svg><svg x="1368"><use xlink:href="#a"/><use xlink:href="#b" x="9.996"/><text y="1.67" class="c">$</text><text x="2.004" y="1.67" class="d">k6x</text><text x="6.012" y="1.67" class="d">buil</text></svg><svg x="1482"><use xlink:href="#a"/><use xlink:href="#b" x="10.996"/><use xlink:href="#3"/></svg><svg x="1596"><use xlink:href="#a"/><use xlink:href="#b" x="11.996"/><use xlink:href="#3"/></svg><svg x="1710"><use xlink:href="#a"/><use xlink:href="#b" x="12.996"/><text y="1.67" class="c">$</text><text x="2.004" y="1.67" class="d">k6x</text><text x="6.012" y="1.67" class="d">build</text><text x="12.024" y="1.67" class="d">-</text></svg><svg x="1824"><use xlink:href="#a"/><use xlink:href="#b" x="13.996"/><text y="1.67" class="c">$</text><text x="2.004" y="1.67" class="d">k6x</text><text x="6.012" y="1.67" class="d">build</text><text x="12.024" y="1.67" class="d">--</text></svg><svg x="1938"><use xlink:href="#a"/><use xlink:href="#b" x="14.996"/><text y="1.67" class="c">$</text><text x="2.004" y="1.67" class="d">k6x</text><text x="6.012" y="1.67" class="d">build</text><text x="12.024" y="1.67" class="d">--w</text></svg><svg x="2052"><use xlink:href="#a"/><use xlink:href="#b" x="15.996"/><text y="1.67" class="c">$</text><text x="2.004" y="1.67" class="d">k6x</text><text x="6.012" y="1.67" class="d">build</text><text x="12.024" y="1.67" class="d">--wi</text></svg><svg x="2166"><use xlink:href="#a"/><use xlink:href="#b" x="16.996"/><text y="1.67" class="c">$</text><text x="2.004" y="1.67" class="d">k6x</text><text x="6.012" y="1.67" class="d">build</text><text x="12.024" y="1.67" class="d">--wit</text></svg><svg x="2280"><use xlink:href="#a"/><use xlink:href="#b" x="17.996"/><use xlink:href="#4"/></svg><svg x="2394"><use xlink:href="#a"/><use xlink:href="#b" x="18.996"/><use xlink:href="#4"/></svg><svg x="2508"><use xlink:href="#a"/><use xlink:href="#b" x="19.996"/><text y="1.67" class="c">$</text><text x="2.004" y="1.67" class="d">k6x</text><text x="6.012" y="1.67" class="d">build</text><text x="12.024" y="1.67" class="d">--with</text><text x="19.038" y="1.67" class="d">d</text></svg><svg x="2622"><use xlink:href="#a"/><use xlink:href="#b" x="20.996"/><text y="1.67" class="c">$</text><text x="2.004" y="1.67" class="d">k6x</text><text x="6.012" y="1.67" class="d">build</text><text x="12.024" y="1.67" class="d">--with</text><text x="19.038" y="1.67" class="d">da</text></svg><svg x="2736"><use xlink:href="#a"/><use xlink:href="#b" x="21.996"/><text y="1.67" class="c">$</text><text x="2.004" y="1.67" class="d">k6x</text><text x="6.012" y="1.67" class="d">build</text><text x="12.024" y="1.67" class="d">--with</text><text x="19.038" y="1.67" class="d">das</text></svg><svg x="2850"><use xlink:href="#a"/><use xlink:href="#b" x="22.996"/><text y="1.67" class="c">$</text><text x="2.004" y="1.67" class="d">k6x</text><text x="6.012" y="1.67" class="d">build</text><text x="12.024" y="1.67" class="d">--with</text><text x="19.038" y="1.67" class="d">dash</text></svg><svg x="2964"><use xlink:href="#a"/><use xlink:href="#b" x="23.996"/><text y="1.67" class="c">$</text><text x="2.004" y="1.67" class="d">k6x</text><text x="6.012" y="1.67" class="d">build</text><text x="12.024" y="1.67" class="d">--with</text><text x="19.038" y="1.67" class="d">dashb</text></svg><svg x="3078"><use xlink:href="#a"/><use xlink:href="#b" x="24.996"/><text y="1.67" class="c">$</text><text x="2.004" y="1.67" class="d">k6x</text><text x="6.012" y="1.67" class="d">build</text><text x="12.024" y="1.67" class="d">--with</text><text x="19.038" y="1.67" class="d">dashbo</text></svg><svg x="3192"><use xlink:href="#a"/><use xlink:href="#b" x="25.996"/><text y="1.67" class="c">$</text><text x="2.004" y="1.67" class="d">k6x</text><text x="6.012" y="1.67" class="d">build</text><text x="12.024" y="1.67" class="d">--with</text><text x="19.038" y="1.67" class="d">dashboa</text></svg><svg x="3306"><use xlink:href="#a"/><use xlink:href="#b" x="26.996"/><text y="1.67" class="c">$</text><text x="2.004" y="1.67" class="d">k6x</text><text x="6.012" y="1.67" class="d">build</text><text x="12.024" y="1.67" class="d">--with</text><text x="19.038" y="1.67" class="d">dashboar</text></svg><svg x="3420"><use xlink:href="#a"/><use xlink:href="#b" x="27.996"/><use xlink:href="#5"/></svg><svg x="3534"><use xlink:href="#a"/><use xlink:href="#b" x="28.996"/><use xlink:href="#5"/></svg><svg x="3648"><use xlink:href="#a"/><use xlink:href="#b" x="29.996"/><text y="1.67" class="c">$</text><text x="2.004" y="1.67" class="d">k6x</text><text x="6.012" y="1.67" class="d">build</text><text x="12.024" y="1.67" class="d">--with</text><text x="19.038" y="1.67" class="d">dashboard</text><text x="29.058" y="1.67" class="d">-</text></svg><svg x="3762"><use xlink:href="#a"/><use xlink:href="#b" x="30.996"/><text y="1.67" class="c">$</text><text x="2.004" y="1.67" class="d">k6x</text><text x="6.012" y="1.67" class="d">build</text><text x="12.024" y="1.67" class="d">--with</text><text x="19.038" y="1.67" class="d">dashboard</text><text x="29.058" y="1.67" class="d">--</text></svg><svg x="3876"><use xlink:href="#a"/><use xlink:href="#b" x="31.996"/><text y="1.67" class="c">$</text><text x="2.004" y="1.67" class="d">k6x</text><text x="6.012" y="1.67" class="d">build</text><text x="12.024" y="1.67" class="d">--with</text><text x="19.038" y="1.67" class="d">dashboard</text><text x="29.058" y="1.67" class="d">--w</text></svg><svg x="3990"><use xlink:href="#a"/><use xlink:href="#b" x="32.996"/><text y="1.67" class="c">$</text><text x="2.004" y="1.67" class="d">k6x</text><text x="6.012" y="1.67" class="d">build</text><text x="12.024" y="1.67" class="d">--with</text><text x="19.038" y="1.67" class="d">dashboard</text><text x="29.058" y="1.67" class="d">--wi</text></svg><svg x="4104"><use xlink:href="#a"/><use xlink:href="#b" x="33.996"/><text y="1.67" class="c">$</text><text x="2.004" y="1.67" class="d">k6x</text><text x="6.012" y="1.67" class="d">build</text><text x="12.024" y="1.67" class="d">--with</text><text x="19.038" y="1.67" class="d">dashboard</text><text x="29.058" y="1.67" class="d">--wit</text></svg><svg x="4218"><use xlink:href="#a"/><use xlink:href="#b" x="34.996"/><use xlink:href="#6"/></svg><svg x="4332"><use xlink:href="#a"/><use xlink:href="#b" x="35.996"/><use xlink:href="#6"/></svg><svg x="4446"><use xlink:href="#a"/><use xlink:href="#b" x="36.996"/><text y="1.67" class="c">$</text><text x="2.004" y="1.67" class="d">k6x</text><text x="6.012" y="1.67" class="d">build</text><text x="12.024" y="1.67" class="d">--with</text><text x="19.038" y="1.67" class="d">dashboard</text><text x="29.058" y="1.67" class="d">--with</text><text x="36.072" y="1.67" class="d">k</text></svg><svg x="4560"><use xlink:href="#a"/><use xlink:href="#b" x="37.996"/><text y="1.67" class="c">$</text><text x="2.004" y="1.67" class="d">k6x</text><text x="6.012" y="1.67" class="d">build</text><text x="12.024" y="1.67" class="d">--with</text><text x="19.038" y="1.67" class="d">dashboard</text><text x="29.058" y="1.67" class="d">--with</text><text x="36.072" y="1.67" class="d">k6</text></svg><svg x="4674"><use xlink:href="#a"/><use xlink:href="#b" x="38.996"/><text y="1.67" class="c">$</text><text x="2.004" y="1.67" class="d">k6x</text><text x="6.012" y="1.67" class="d">build</text><text x="12.024" y="1.67" class="d">--with</text><text x="19.038" y="1.67" class="d">dashboard</text><text x="29.058" y="1.67" class="d">--with</text><text x="36.072" y="1.67" class="d">k6/</text></svg><svg x="4788"><use xlink:href="#a"/><use xlink:href="#b" x="39.996"/><text y="1.67" class="c">$</text><text x="2.004" y="1.67" class="d">k6x</text><text x="6.012" y="1.67" class="d">build</text><text x="12.024" y="1.67" class="d">--with</text><text x="19.038" y="1.67" class="d">dashboard</text><text x="29.058" y="1.67" class="d">--with</text><text x="36.072" y="1.67" class="d">k6/x</text></svg><svg x="4902"><use xlink:href="#a"/><use xlink:href="#b" x="40.996"/><text y="1.67" class="c">$</text><text x="2.004" y="1.67" class="d">k6x</text><text x="6.012" y="1.67" class="d">build</text><text x="12.024" y="1.67" class="d">--with</text><text x="19.038" y="1.67" class="d">dashboard</text><text x="29.058" y="1.67" class="d">--with</text><text x="36.072" y="1.67" class="d">k6/x/</text></svg><svg x="5016"><use xlink:href="#a"/><use xlink:href="#b" x="41.996"/><text y="1.67" class="c">$</text><text x="2.004" y="1.67" class="d">k6x</text><text x="6.012" y="1.67" class="d">build</text><text x="12.024" y="1.67" class="d">--with</text><text x="19.038" y="1.67" class="d">dashboard</text><text x="29.058" y="1.67" class="d">--with</text><text x="36.072" y="1.67" class="d">k6/x/f</text></svg><svg x="5130"><use xlink:href="#a"/><use xlink:href="#b" x="42.996"/><text y="1.67" class="c">$</text><text x="2.004" y="1.67" class="d">k6x</text><text x="6.012" y="1.67" class="d">build</text><text x="12.024" y="1.67" class="d">--with</text><text x="19.038" y="1.67" class="d">dashboard</text><text x="29.058" y="1.67" class="d">--with</text><text x="36.072" y="1.67" class="d">k6/x/fa</text></svg><svg x="5244"><use xlink:href="#a"/><use xlink:href="#b" x="43.996"/><text y="1.67" class="c">$</text><text x="2.004" y="1.67" class="d">k6x</text><text x="6.012" y="1.67" class="d">build</text><text x="12.024" y="1.67" class="d">--with</text><text x="19.038" y="1.67" class="d">dashboard</text><text x="29.058" y="1.67" class="d">--with</text><text x="36.072" y="1.67" class="d">k6/x/fak</text></svg><svg x="5358"><use xlink:href="#a"/><use xlink:href="#b" x="44.996"/><text y="1.67" class="c">$</text><text x="2.004" y="1.67" class="d">k6x</text><text x="6.012" y="1.67" class="d">build</text><text x="12.024" y="1.67" class="d">--with</text><text x="19.038" y="1.67" class="d">dashboard</text><text x="29.058" y="1.67" class="d">--with</text><text x="36.072" y="1.67" class="d">k6/x/fake</text></svg><svg x="5472"><use xlink:href="#a"/><use xlink:href="#b" x="45.996"/><use xlink:href="#7"/></svg><svg x="5586"><use xlink:href="#a"/><use xlink:href="#b" x="46.996"/><use xlink:href="#7"/></svg><svg x="5700"><use xlink:href="#a"/><use xlink:href="#b" x="47.996"/><text y="1.67" class="c">$</text><text x="2.004" y="1.67" class="d">k6x</text><text x="6.012" y="1.67" class="d">build</text><text x="12.024" y="1.67" class="d">--with</text><text x="19.038" y="1.67" class="d">dashboard</text><text x="29.058" y="1.67" class="d">--with</text><text x="36.072" y="1.67" class="d">k6/x/faker</text><text x="47.094" y="1.67" class="d">-</text></svg><svg x="5814"><use xlink:href="#a"/><use xlink:href="#b" x="48.996"/><text y="1.67" class="c">$</text><text x="2.004" y="1.67" class="d">k6x</text><text x="6.012" y="1.67" class="d">build</text><text x="12.024" y="1.67" class="d">--with</text><text x="19.038" y="1.67" class="d">dashboard</text><text x="29.058" y="1.67" class="d">--with</text><text x="36.072" y="1.67" class="d">k6/x/faker</text><text x="47.094" y="1.67" class="d">--</text></svg><svg x="5928"><use xlink:href="#a"/><use xlink:href="#b" x="49.996"/><text y="1.67" class="c">$</text><text x="2.004" y="1.67" class="d">k6x</text><text x="6.012" y="1.67" class="d">build</text><text x="12.024" y="1.67" class="d">--with</text><text x="19.038" y="1.67" class="d">dashboard</text><text x="29.058" y="1.67" class="d">--with</text><text x="36.072" y="1.67" class="d">k6/x/faker</text><text x="47.094" y="1.67" class="d">--w</text></svg><svg x="6042"><use xlink:href="#a"/><use xlink:href="#b" x="50.996"/><text y="1.67" class="c">$</text><text x="2.004" y="1.67" class="d">k6x</text><text x="6.012" y="1.67" class="d">build</text><text x="12.024" y="1.67" class="d">--with</text><text x="19.038" y="1.67" class="d">dashboard</text><text x="29.058" y="1.67" class="d">--with</text><text x="36.072" y="1.67" class="d">k6/x/faker</text><text x="47.094" y="1.67" class="d">--wi</text></svg><svg x="6156"><use xlink:href="#a"/><use xlink:href="#b" x="51.996"/><text y="1.67" class="c">$</text><text x="2.004" y="1.67" class="d">k6x</text><text x="6.012" y="1.67" class="d">build</text><text x="12.024" y="1.67" class="d">--with</text><text x="19.038" y="1.67" class="d">dashboard</text><text x="29.058" y="1.67" class="d">--with</text><text x="36.072" y="1.67" class="d">k6/x/faker</text><text x="47.094" y="1.67" class="d">--wit</text></svg><svg x="6270"><use xlink:href="#a"/><use xlink:href="#b" x="52.996"/><use xlink:href="#8"/></svg><svg x="6384"><use xlink:href="#a"/><use xlink:href="#b" x="53.996"/><use xlink:href="#8"/></svg><svg x="6498"><use xlink:href="#a"/><use xlink:href="#b" x="54.996"/><text y="1.67" class="c">$</text><text x="2.004" y="1.67" class="d">k6x</text><text x="6.012" y="1.67" class="d">build</text><text x="12.024" y="1.67" class="d">--with</text><text x="19.038" y="1.67" class="d">dashboard</text><text x="29.058" y="1.67" class="d">--with</text><text x="36.072" y="1.67" class="d">k6/x/faker</text><text x="47.094" y="1.67" class="d">--with</text><text x="54.108" y="1.67" class="d">t</text></svg><svg x="6612"><use xlink:href="#a"/><use xlink:href="#b" x="55.996"/><text y="1.67" class="c">$</text><text x="2.004" y="1.67" class="d">k6x</text><text x="6.012" y="1.67" class="d">build</text><text x="12.024" y="1.67" class="d">--with</text><text x="19.038" y="1.67" class="d">dashboard</text><text x="29.058" y="1.67" class="d">--with</text><text x="36.072" y="1.67" class="d">k6/x/faker</text><text x="47.094" y="1.67" class="d">--with</text><text x="54.108" y="1.67" class="d">to</text></svg><svg x="6726"><use xlink:href="#a"/><use xlink:href="#b" x="56.996"/><use xlink:href="#9"/></svg><svg x="6840"><use xlink:href="#a"/><use xlink:href="#b" x="-.004" y="2.146"/><use xlink:href="#9"/></svg><svg x="6954"><use xlink:href="#a"/><use xlink:href="#b" x="-.004" y="2.146"/><use xlink:href="#9"/></svg><svg x="7068"><use xlink:href="#a"/><use xlink:href="#9"/></svg><svg x="7182"><use xlink:href="#a"/><use xlink:href="#9"/></svg><svg x="7296"><use xlink:href="#a"/><use xlink:href="#9"/><text y="3.841" class="d">k6x</text><text x="4.008" y="3.841" class="i">[=</text><text x="9.018" y="3.841" class="i">]</text><text x="11.022" y="3.841" class="d">search</text><text x="18.036" y="3.841" class="d">for</text><text x="22.044" y="3.841" class="d">dependencies</text></svg><svg x="7410"><use xlink:href="#a"/><use xlink:href="#9"/><text y="3.841" class="d">k6x</text><text x="4.008" y="3.841" class="i">[==</text><text x="9.018" y="3.841" class="i">]</text><text x="11.022" y="3.841" class="d">search</text><text x="18.036" y="3.841" class="d">for</text><text x="22.044" y="3.841" class="d">dependencies</text></svg><svg x="7524"><use xlink:href="#a"/><use xlink:href="#9"/><text y="3.841" class="d">k6x</text><text x="4.008" y="3.841" class="i">[===</text><text x="9.018" y="3.841" class="i">]</text><text x="11.022" y="3.841" class="d">search</text><text x="18.036" y="3.841" class="d">for</text><text x="22.044" y="3.841" class="d">dependencies</text></svg><svg x="7638"><use xlink:href="#a"/><use xlink:href="#9"/><text y="3.841" class="d">k6x</text><text x="4.008" y="3.841" class="i">[====]</text><text x="11.022" y="3.841" class="d">search</text><text x="18.036" y="3.841" class="d">for</text><text x="22.044" y="3.841" class="d">dependencies</text></svg><svg x="7752"><use xlink:href="#a"/><use xlink:href="#9"/><text y="3.841" class="d">k6x</text><text x="4.008" y="3.841" class="i">[</text><text x="6.012" y="3.841" class="i">===]</text><text x="11.022" y="3.841" class="d">search</text><text x="18.036" y="3.841" class="d">for</text><text x="22.044" y="3.841" class="d">dependencies</text></svg><svg x="7866"><use xlink:href="#a"/><use xlink:href="#9"/><text y="3.841" class="d">k6x</text><text x="4.008" y="3.841" class="i">[</text><text x="7.014" y="3.841" class="i">==]</text><text x="11.022" y="3.841" class="d">search</text><text x="18.036" y="3.841" class="d">for</text><text x="22.044" y="3.841" class="d">dependencies</text></svg><svg x="7980"><use xlink:href="#a"/><use xlink:href="#9"/><text y="3.841" class="d">k6x</text><text x="4.008" y="3.841" class="i">[</text><text x="8.016" y="3.841" class="i">=]</text><text x="11.022" y="3.841" class="d">resolving</text><text x="21.042" y="3.841" class="d">dependencies</text></svg><svg x="8094"><use xlink:href="#a"/><use xlink:href="#9"/><text y="3.841" class="d">k6x</text><text x="4.008" y="3.841" class="i">[</text><text x="9.018" y="3.841" class="i">]</text><text x="11.022" y="3.841" class="d">resolving</text><text x="21.042" y="3.841" class="d">dependencies</text></svg><svg x="8208"><use xlink:href="#a"/><use xlink:href="#9"/><text y="3.841" class="d">k6x</text><text x="4.008" y="3.841" class="i">[=</text><text x="9.018" y="3.841" class="i">]</text><text x="11.022" y="3.841" class="d">resolving</text><text x="21.042" y="3.841" class="d">dependencies</text></svg><svg x="8322"><use xlink:href="#a"/><use xlink:href="#9"/><text y="3.841" class="d">k6x</text><text x="4.008" y="3.841" class="i">[==</text><text x="9.018" y="3.841" class="i">]</text><text x="11.022" y="3.841" class="d">resolving</text><text x="21.042" y="3.841" class="d">dependencies</text></svg><svg x="8436"><use xlink:href="#a"/><use xlink:href="#9"/><text y="3.841" class="d">k6x</text><text x="4.008" y="3.841" class="i">[===</text><text x="9.018" y="3.841" class="i">]</text><text x="11.022" y="3.841" class="d">resolving</text><text x="21.042" y="3.841" class="d">dependencies</text></svg><svg x="8550"><use xlink:href="#a"/><use xlink:href="#9"/><text y="3.841" class="d">k6x</text><text x="4.008" y="3.841" class="i">[====]</text><text x="11.022" y="3.841" class="d">installing</text><text x="22.044" y="3.841" class="d">k6</text><text x="25.05" y="3.841" class="d">(builder:</text><text x="35.07" y="3.841" class="d">service,</text><text x="44.088" y="3.841" class="d">target:</text><text x="52.104" y="3.841" class="d">.)</text></svg><svg x="8664"><use xlink:href="#a"/><use xlink:href="#9"/><text y="3.841" class="d">k6x</text><text x="4.008" y="3.841" class="i">[</text><text x="6.012" y="3.841" class="i">===]</text><text x="11.022" y="3.841" class="d">installing</text><text x="22.044" y="3.841" class="d">k6</text><text x="25.05" y="3.841" class="d">(builder:</text><text x="35.07" y="3.841" class="d">service,</text><text x="44.088" y="3.841" class="d">target:</text><text x="52.104" y="3.841" class="d">.)</text></svg><svg x="8778"><use xlink:href="#a"/><use xlink:href="#9"/><text y="3.841" class="d">k6x</text><text x="4.008" y="3.841" class="i">[</text><text x="7.014" y="3.841" class="i">==]</text><text x="11.022" y="3.841" class="d">installing</text><text x="22.044" y="3.841" class="d">k6</text><text x="25.05" y="3.841" class="d">(builder:</text><text x="35.07" y="3.841" class="d">service,</text><text x="44.088" y="3.841" class="d">target:</text><text x="52.104" y="3.841" class="d">.)</text></svg><svg x="8892"><use xlink:href="#a"/><use xlink:href="#9"/><text y="3.841" class="d">k6x</text><text x="4.008" y="3.841" class="i">[</text><text x="8.016" y="3.841" class="i">=]</text><text x="11.022" y="3.841" class="d">installing</text><text x="22.044" y="3.841" class="d">k6</text><text x="25.05" y="3.841" class="d">(builder:</text><text x="35.07" y="3.841" class="d">service,</text><text x="44.088" y="3.841" class="d">target:</text><text x="52.104" y="3.841" class="d">.)</text></svg><svg x="9006"><use xlink:href="#a"/><use xlink:href="#9"/><text y="3.841" class="d">k6x</text><text x="4.008" y="3.841" class="i">[</text><text x="9.018" y="3.841" class="i">]</text><text x="11.022" y="3.841" class="d">installing</text><text x="22.044" y="3.841" class="d">k6</text><text x="25.05" y="3.841" class="d">(builder:</text><text x="35.07" y="3.841" class="d">service,</text><text x="44.088" y="3.841" class="d">target:</text><text x="52.104" y="3.841" class="d">.)</text></svg><svg x="9120"><use xlink:href="#a"/><use xlink:href="#9"/><text y="3.841" class="d">k6x</text><text x="4.008" y="3.841" class="i">[=</text><text x="9.018" y="3.841" class="i">]</text><text x="11.022" y="3.841" class="d">installing</text><text x="22.044" y="3.841" class="d">k6</text><text x="25.05" y="3.841" class="d">(builder:</text><text x="35.07" y="3.841" class="d">service,</text><text x="44.088" y="3.841" class="d">target:</text><text x="52.104" y="3.841" class="d">.)</text></svg><svg x="9234"><use xlink:href="#a"/><use xlink:href="#9"/><text y="3.841" class="d">k6x</text><text x="4.008" y="3.841" class="i">[==</text><text x="9.018" y="3.841" class="i">]</text><text x="11.022" y="3.841" class="d">installing</text><text x="22.044" y="3.841" class="d">k6</text><text x="25.05" y="3.841" class="d">(builder:</text><text x="35.07" y="3.841" class="d">service,</text><text x="44.088" y="3.841" class="d">target:</text><text x="52.104" y="3.841" class="d">.)</text></svg><svg x="9348"><use xlink:href="#a"/><use xlink:href="#b" x="-.004" y="2.146"/><use xlink:href="#9"/></svg><svg x="9462"><use xlink:href="#a"/><use xlink:href="#b" x="-.004" y="2.146"/><use xlink:href="#9"/></svg><svg x="9576"><use xlink:href="#a"/><use xlink:href="#b" x="-.004" y="2.146"/><use xlink:href="#9"/></svg><svg x="9690"><use xlink:href="#a"/><use xlink:href="#b" x="-.004" y="2.146"/><use xlink:href="#9"/></svg><svg x="9804"><use xlink:href="#a"/><use xlink:href="#b" x="1.996" y="2.146"/><use xlink:href="#9"/><use xlink:href="#1" y="2.171"/></svg><svg x="9918"><use xlink:href="#a"/><use xlink:href="#b" x="1.996" y="2.146"/><use xlink:href="#9"/><use xlink:href="#1" y="2.171"/></svg><svg x="10032"><use xlink:href="#a"/><use xlink:href="#b" x="1.996" y="2.146"/><use xlink:href="#9"/><use xlink:href="#1" y="2.171"/></svg><svg x="10146"><use xlink:href="#a"/><use xlink:href="#b" x="2.996" y="2.146"/><use xlink:href="#9"/><text y="3.841" class="c">$</text><text x="2.004" y="3.841" class="d">.</text></svg><svg x="10260"><use xlink:href="#a"/><use xlink:href="#b" x="3.996" y="2.146"/><use xlink:href="#9"/><text y="3.841" class="c">$</text><text x="2.004" y="3.841" class="d">./</text></svg><svg x="10374"><use xlink:href="#a"/><use xlink:href="#b" x="4.996" y="2.146"/><use xlink:href="#9"/><text y="3.841" class="c">$</text><text x="2.004" y="3.841" class="d">./k</text></svg><svg x="10488"><use xlink:href="#a"/><use xlink:href="#b" x="5.996" y="2.146"/><use xlink:href="#9"/><use xlink:href="#10" y="2.171"/></svg><svg x="10602"><use xlink:href="#a"/><use xlink:href="#b" x="6.996" y="2.146"/><use xlink:href="#9"/><use xlink:href="#10" y="2.171"/></svg><svg x="10716"><use xlink:href="#a"/><use xlink:href="#b" x="7.996" y="2.146"/><use xlink:href="#9"/><text y="3.841" class="c">$</text><text x="2.004" y="3.841" class="d">./k6</text><text x="7.014" y="3.841" class="d">v</text></svg><svg x="10830"><use xlink:href="#a"/><use xlink:href="#b" x="8.996" y="2.146"/><use xlink:href="#9"/><text y="3.841" class="c">$</text><text x="2.004" y="3.841" class="d">./k6</text><text x="7.014" y="3.841" class="d">ve</text></svg><svg x="10944"><use xlink:href="#a"/><use xlink:href="#b" x="9.996" y="2.146"/><use xlink:href="#9"/><text y="3.841" class="c">$</text><text x="2.004" y="3.841" class="d">./k6</text><text x="7.014" y="3.841" class="d">ver</text></svg><svg x="11058"><use xlink:href="#a"/><use xlink:href="#b" x="10.996" y="2.146"/><use xlink:href="#9"/><text y="3.841" class="c">$</text><text x="2.004" y="3.841" class="d">./k6</text><text x="7.014" y="3.841" class="d">vers</text></svg><svg x="11172"><use xlink:href="#a"/><use xlink:href="#b" x="11.996" y="2.146"/><use xlink:href="#9"/><text y="3.841" class="c">$</text><text x="2.004" y="3.841" class="d">./k6</text><text x="7.014" y="3.841" class="d">versi</text></svg><svg x="11286"><use xlink:href="#a"/><use xlink:href="#b" x="12.996" y="2.146"/><use xlink:href="#9"/><text y="3.841" class="c">$</text><text x="2.004" y="3.841" class="d">./k6</text><text x="7.014" y="3.841" class="d">versio</text></svg><svg x="11400"><use xlink:href="#a"/><use xlink:href="#b" x="13.996" y="2.146"/><use xlink:href="#9"/><use xlink:href="#11" y="2.171"/></svg><svg x="11514"><use xlink:href="#a"/><use xlink:href="#b" x="13.996" y="2.146"/><use xlink:href="#9"/><use xlink:href="#11" y="2.171"/></svg><svg x="11628"><use xlink:href="#a"/><use xlink:href="#b" x="-.004" y="4.317"/><use xlink:href="#9"/><use xlink:href="#11" y="2.171"/></svg><svg x="11742"><use xlink:href="#a"/><use xlink:href="#b" x="-.004" y="4.317"/><use xlink:href="#9"/><use xlink:href="#11" y="2.171"/></svg><svg x="11856"><use xlink:href="#a"/><use xlink:href="#b" x="-.004" y="15.172"/><use xlink:href="#9"/><use xlink:href="#11" y="2.171"/><use xlink:href="#12" y="4.342"/><use xlink:href="#13" y="6.513"/><use xlink:href="#14" y="8.684"/><use xlink:href="#15" y="10.855"/><use xlink:href="#16" y="13.026"/></svg><svg x="11970"><use xlink:href="#a"/><use xlink:href="#b" x="-.004" y="15.172"/><use xlink:href="#9"/><use xlink:href="#11" y="2.171"/><use xlink:href="#12" y="4.342"/><use xlink:href="#13" y="6.513"/><use xlink:href="#14" y="8.684"/><use xlink:href="#15" y="10.855"/><use xlink:href="#16" y="13.026"/></svg><svg x="12084"><use xlink:href="#a"/><use xlink:href="#b" x="-.004" y="15.172"/><use xlink:href="#9"/><use xlink:href="#11" y="2.171"/><use xlink:href="#12" y="4.342"/><use xlink:href="#13" y="6.513"/><use xlink:href="#14" y="8.684"/><use xlink:href="#15" y="10.855"/><use xlink:href="#16" y="13.026"/></svg><svg x="12198"><use xlink:href="#a"/><use xlink:href="#b" x="1.996" y="15.172"/><use xlink:href="#9"/><use xlink:href="#11" y="2.171"/><use xlink:href="#12" y="4.342"/><use xlink:href="#13" y="6.513"/><use xlink:href="#14" y="8.684"/><use xlink:href="#15" y="10.855"/><use xlink:href="#16" y="13.026"/><use xlink:href="#1" y="15.197"/></svg><svg x="12312"><use xlink:href="#a"/><use xlink:href="#b" x="1.996" y="15.172"/><use xlink:href="#9"/><use xlink:href="#11" y="2.171"/><use xlink:href="#12" y="4.342"/><use xlink:href="#13" y="6.513"/><use xlink:href="#14" y="8.684"/><use xlink:href="#15" y="10.855"/><use xlink:href="#16" y="13.026"/><use xlink:href="#1" y="15.197"/></svg><svg x="12426"><use xlink:href="#a"/><use xlink:href="#b" x="1.996" y="15.172"/><use xlink:href="#9"/><use xlink:href="#11" y="2.171"/><use xlink:href="#12" y="4.342"/><use xlink:href="#13" y="6.513"/><use xlink:href="#14" y="8.684"/><use xlink:href="#15" y="10.855"/><use xlink:href="#16" y="13.026"/><use xlink:href="#1" y="15.197"/></svg><svg x="12540"><use xlink:href="#a"/><use xlink:href="#b" x="-.004" y="17.343"/><use xlink:href="#9"/><use xlink:href="#11" y="2.171"/><use xlink:href="#12" y="4.342"/><use xlink:href="#13" y="6.513"/><use xlink:href="#14" y="8.684"/><use xlink:href="#15" y="10.855"/><use xlink:href="#16" y="13.026"/><use xlink:href="#1" y="15.197"/></svg></svg></g></g></svg></svg>