<svg xmlns="http://www.w3.org/2000/svg" xmlns:xlink="http://www.w3.org/1999/xlink" width="1140" height="434.2"><rect width="1140" height="434.2" rx="0" ry="0" class="a"/><svg height="434.2" viewBox="0 0 114 43.42" width="1140" xmlns="http://www.w3.org/2000/svg" xmlns:xlink="http://www.w3.org/1999/xlink"><style>@keyframes h{0%{transform:translateX(0)}1.9%{transform:translateX(-684px)}2.4%{transform:translateX(-798px)}2.9%{transform:translateX(-912px)}4.8%{transform:translateX(-1026px)}6.2%{transform:translateX(-1140px)}6.7%{transform:translateX(-1254px)}7.6%{transform:translateX(-1368px)}11.5%{transform:translateX(-1482px)}14.9%{transform:translateX(-1596px)}15.4%{transform:translateX(-1710px)}16.2%{transform:translateX(-1824px)}16.7%{transform:translateX(-1938px)}17.3%{transform:translateX(-2052px)}17.8%{transform:translateX(-2166px)}18.3%{transform:translateX(-2280px)}20.1%{transform:translateX(-2394px)}23.3%{transform:translateX(-2508px)}26.3%{transform:translateX(-2622px)}26.9%{transform:translateX(-2736px)}27.7%{transform:translateX(-2850px)}28.5%{transform:translateX(-2964px)}29%{transform:translateX(-3078px)}29.7%{transform:translateX(-3192px)}34.2%{transform:translateX(-3306px)}35.9%{transform:translateX(-3420px)}39%{transform:translateX(-3534px)}39.5%{transform:translateX(-3648px)}42.7%{transform:translateX(-3762px)}44.8%{transform:translateX(-3876px)}45.5%{transform:translateX(-3990px)}46.7%{transform:translateX(-4104px)}47.6%{transform:translateX(-4218px)}48.6%{transform:translateX(-4332px)}49.8%{transform:translateX(-4446px)}50.3%{transform:translateX(-4560px)}50.8%{transform:translateX(-4674px)}52.7%{transform:translateX(-4788px)}53.6%{transform:translateX(-4902px)}55.7%{transform:translateX(-5016px)}57.4%{transform:translateX(-5130px)}58.5%{transform:translateX(-5244px)}59%{transform:translateX(-5358px)}59.5%{transform:translateX(-5472px)}60.3%{transform:translateX(-5586px)}62.8%{transform:translateX(-5700px)}63.3%{transform:translateX(-5814px)}63.8%{transform:translateX(-5928px)}64.3%{transform:translateX(-6042px)}64.8%{transform:translateX(-6156px)}65.3%{transform:translateX(-6270px)}66.1%{transform:translateX(-6384px)}67.1%{transform:translateX(-6498px)}68.1%{transform:translateX(-6612px)}69.7%{transform:translateX(-6726px)}70.2%{transform:translateX(-6840px)}71.8%{transform:translateX(-6954px)}72.5%{transform:translateX(-7068px)}74.1%{transform:translateX(-7182px)}75.4%{transform:translateX(-7524px)}75.8%{transform:translateX(-7752px)}77.9%{transform:translateX(-7866px)}79.4%{transform:translateX(-8550px)}to{transform:translateX(-8664px)}}.a{fill:#282d35}.c,.d,.j{fill:#a8cc8c;white-space:pre}.d,.j{fill:#b9c0cb}.j{fill:#d290e4}</style><g font-family="Monaco,Consolas,Menlo,'Bitstream Vera Sans Mono','Powerline Symbols',monospace" font-size="1.67"><defs><symbol id="1"><text y="1.67" class="c">$</text></symbol><symbol id="2"><text y="1.67" class="c">$</text><text x="2.004" y="1.67" class="d">k6x</text></symbol><symbol id="3"><text y="1.67" class="c">$</text><text x="2.004" y="1.67" class="d">k6x</text><text x="6.012" y="1.67" class="d">run</text></symbol><symbol id="4"><text y="1.67" class="c">$</text><text x="2.004" y="1.67" class="d">k6x</text><text x="6.012" y="1.67" class="d">run</text><text x="10.02" y="1.67" class="d">--filter</text></symbol><symbol id="5"><text y="1.67" class="c">$</text><text x="2.004" y="1.67" class="d">k6x</text><text x="6.012" y="1.67" class="d">run</text><text x="10.02" y="1.67" class="d">--filter</text><text x="19.038" y="1.67" class="d">&quot;[?contains(tiers,&apos;Official&apos;)]&quot;</text></symbol><symbol id="6"><text y="1.67" class="c">$</text><text x="2.004" y="1.67" class="d">k6x</text><text x="6.012" y="1.67" class="d">run</text><text x="10.02" y="1.67" class="d">--filter</text><text x="19.038" y="1.67" class="d">&quot;[?contains(tiers,&apos;Official&apos;)]&quot;</text><text x="51.102" y="1.67" class="d">script.js</text></symbol><symbol id="7"><text y="1.67" style="white-space:pre" fill="#e88388">ERRO</text><text x="4.008" y="1.67" class="d">[0000]</text><text x="11.022" y="1.67" class="d">resolver</text><text x="20.04" y="1.67" class="d">error:</text><text x="27.054" y="1.67" class="d">unable</text><text x="34.068" y="1.67" class="d">to</text><text x="37.074" y="1.67" class="d">resolve</text><text x="45.09" y="1.67" class="d">module:</text><text x="53.106" y="1.67" class="d">k6/x/ansible-vault</text><text x="72.144" y="1.67" class="d">*</text></symbol><symbol id="8"><text y="1.67" class="d">k6/x/dotenv</text><text x="12.024" y="1.67" class="d">*</text></symbol><symbol id="9"><text y="1.67" class="d">k6/x/faker</text><text x="11.022" y="1.67" class="d">*</text></symbol><symbol id="10"><text y="1.67" class="d">k6/x/yaml</text><text x="10.02" y="1.67" class="d">*</text></symbol><symbol id="a"><path fill="transparent" d="M0 0h114v21H0z"/></symbol><symbol id="b"><path fill="#6f7683" d="M0 0h1.102v2.171H0z"/></symbol></defs><path class="a" d="M0 0h114v43.42H0z"/><g style="animation-duration:9.728576s;animation-iteration-count:infinite;animation-name:h;animation-timing-function:steps(1,end)"><svg width="8778"><svg><use xlink:href="#a"/><use xlink:href="#b" x="-.004"/></svg><svg x="114"><use xlink:href="#a"/><use xlink:href="#b" x="-.004"/></svg><svg x="228"><use xlink:href="#a"/><use xlink:href="#b" x="-.004"/></svg><svg x="342"><use xlink:href="#a"/><use xlink:href="#b" x="1.996"/><use xlink:href="#1"/></svg><svg x="456"><use xlink:href="#a"/><use xlink:href="#b" x="1.996"/><use xlink:href="#1"/></svg><svg x="570"><use xlink:href="#a"/><use xlink:href="#b" x="1.996"/><use xlink:href="#1"/></svg><svg x="684"><use xlink:href="#a"/><use xlink:href="#b" x="2.996"/><text y="1.67" class="c">$</text><text x="2.004" y="1.67" class="d">k</text></svg><svg x="798"><use xlink:href="#a"/><use xlink:href="#b" x="3.996"/><text y="1.67" class="c">$</text><text x="2.004" y="1.67" class="d">k6</text></svg><svg x="912"><use xlink:href="#a"/><use xlink:href="#b" x="4.996"/><use xlink:href="#2"/></svg><svg x="1026"><use xlink:href="#a"/><use xlink:href="#b" x="5.996"/><use xlink:href="#2"/></svg><svg x="1140"><use xlink:href="#a"/><use xlink:href="#b" x="6.996"/><text y="1.67" class="c">$</text><text x="2.004" y="1.67" class="d">k6x</text><text x="6.012" y="1.67" class="d">r</text></svg><svg x="1254"><use xlink:href="#a"/><use xlink:href="#b" x="7.996"/><text y="1.67" class="c">$</text><text x="2.004" y="1.67" class="d">k6x</text><text x="6.012" y="1.67" class="d">ru</text></svg><svg x="1368"><use xlink:href="#a"/><use xlink:href="#b" x="8.996"/><use xlink:href="#3"/></svg><svg x="1482"><use xlink:href="#a"/><use xlink:href="#b" x="9.996"/><use xlink:href="#3"/></svg><svg x="1596"><use xlink:href="#a"/><use xlink:href="#b" x="10.996"/><text y="1.67" class="c">$</text><text x="2.004" y="1.67" class="d">k6x</text><text x="6.012" y="1.67" class="d">run</text><text x="10.02" y="1.67" class="d">-</text></svg><svg x="1710"><use xlink:href="#a"/><use xlink:href="#b" x="11.996"/><text y="1.67" class="c">$</text><text x="2.004" y="1.67" class="d">k6x</text><text x="6.012" y="1.67" class="d">run</text><text x="10.02" y="1.67" class="d">--</text></svg><svg x="1824"><use xlink:href="#a"/><use xlink:href="#b" x="12.996"/><text y="1.67" class="c">$</text><text x="2.004" y="1.67" class="d">k6x</text><text x="6.012" y="1.67" class="d">run</text><text x="10.02" y="1.67" class="d">--f</text></svg><svg x="1938"><use xlink:href="#a"/><use xlink:href="#b" x="13.996"/><text y="1.67" class="c">$</text><text x="2.004" y="1.67" class="d">k6x</text><text x="6.012" y="1.67" class="d">run</text><text x="10.02" y="1.67" class="d">--fi</text></svg><svg x="2052"><use xlink:href="#a"/><use xlink:href="#b" x="14.996"/><text y="1.67" class="c">$</text><text x="2.004" y="1.67" class="d">k6x</text><text x="6.012" y="1.67" class="d">run</text><text x="10.02" y="1.67" class="d">--fil</text></svg><svg x="2166"><use xlink:href="#a"/><use xlink:href="#b" x="15.996"/><text y="1.67" class="c">$</text><text x="2.004" y="1.67" class="d">k6x</text><text x="6.012" y="1.67" class="d">run</text><text x="10.02" y="1.67" class="d">--filt</text></svg><svg x="2280"><use xlink:href="#a"/><use xlink:href="#b" x="16.996"/><text y="1.67" class="c">$</text><text x="2.004" y="1.67" class="d">k6x</text><text x="6.012" y="1.67" class="d">run</text><text x="10.02" y="1.67" class="d">--filte</text></svg><svg x="2394"><use xlink:href="#a"/><use xlink:href="#b" x="17.996"/><use xlink:href="#4"/></svg><svg x="2508"><use xlink:href="#a"/><use xlink:href="#b" x="18.996"/><use xlink:href="#4"/></svg><svg x="2622"><use xlink:href="#a"/><use xlink:href="#b" x="19.996"/><text y="1.67" class="c">$</text><text x="2.004" y="1.67" class="d">k6x</text><text x="6.012" y="1.67" class="d">run</text><text x="10.02" y="1.67" class="d">--filter</text><text x="19.038" y="1.67" class="d">&quot;</text></svg><svg x="2736"><use xlink:href="#a"/><use xlink:href="#b" x="20.996"/><text y="1.67" class="c">$</text><text x="2.004" y="1.67" class="d">k6x</text><text x="6.012" y="1.67" class="d">run</text><text x="10.02" y="1.67" class="d">--filter</text><text x="19.038" y="1.67" class="d">&quot;[</text></svg><svg x="2850"><use xlink:href="#a"/><use xlink:href="#b" x="21.996"/><text y="1.67" class="c">$</text><text x="2.004" y="1.67" class="d">k6x</text><text x="6.012" y="1.67" class="d">run</text><text x="10.02" y="1.67" class="d">--filter</text><text x="19.038" y="1.67" class="d">&quot;[?</text></svg><svg x="2964"><use xlink:href="#a"/><use xlink:href="#b" x="22.996"/><text y="1.67" class="c">$</text><text x="2.004" y="1.67" class="d">k6x</text><text x="6.012" y="1.67" class="d">run</text><text x="10.02" y="1.67" class="d">--filter</text><text x="19.038" y="1.67" class="d">&quot;[?c</text></svg><svg x="3078"><use xlink:href="#a"/><use xlink:href="#b" x="23.996"/><text y="1.67" class="c">$</text><text x="2.004" y="1.67" class="d">k6x</text><text x="6.012" y="1.67" class="d">run</text><text x="10.02" y="1.67" class="d">--filter</text><text x="19.038" y="1.67" class="d">&quot;[?co</text></svg><svg x="3192"><use xlink:href="#a"/><use xlink:href="#b" x="24.996"/><text y="1.67" class="c">$</text><text x="2.004" y="1.67" class="d">k6x</text><text x="6.012" y="1.67" class="d">run</text><text x="10.02" y="1.67" class="d">--filter</text><text x="19.038" y="1.67" class="d">&quot;[?con</text></svg><svg x="3306"><use xlink:href="#a"/><use xlink:href="#b" x="25.996"/><text y="1.67" class="c">$</text><text x="2.004" y="1.67" class="d">k6x</text><text x="6.012" y="1.67" class="d">run</text><text x="10.02" y="1.67" class="d">--filter</text><text x="19.038" y="1.67" class="d">&quot;[?cont</text></svg><svg x="3420"><use xlink:href="#a"/><use xlink:href="#b" x="26.996"/><text y="1.67" class="c">$</text><text x="2.004" y="1.67" class="d">k6x</text><text x="6.012" y="1.67" class="d">run</text><text x="10.02" y="1.67" class="d">--filter</text><text x="19.038" y="1.67" class="d">&quot;[?conta</text></svg><svg x="3534"><use xlink:href="#a"/><use xlink:href="#b" x="27.996"/><text y="1.67" class="c">$</text><text x="2.004" y="1.67" class="d">k6x</text><text x="6.012" y="1.67" class="d">run</text><text x="10.02" y="1.67" class="d">--filter</text><text x="19.038" y="1.67" class="d">&quot;[?contai</text></svg><svg x="3648"><use xlink:href="#a"/><use xlink:href="#b" x="28.996"/><text y="1.67" class="c">$</text><text x="2.004" y="1.67" class="d">k6x</text><text x="6.012" y="1.67" class="d">run</text><text x="10.02" y="1.67" class="d">--filter</text><text x="19.038" y="1.67" class="d">&quot;[?contain</text></svg><svg x="3762"><use xlink:href="#a"/><use xlink:href="#b" x="29.996"/><text y="1.67" class="c">$</text><text x="2.004" y="1.67" class="d">k6x</text><text x="6.012" y="1.67" class="d">run</text><text x="10.02" y="1.67" class="d">--filter</text><text x="19.038" y="1.67" class="d">&quot;[?contains</text></svg><svg x="3876"><use xlink:href="#a"/><use xlink:href="#b" x="30.996"/><text y="1.67" class="c">$</text><text x="2.004" y="1.67" class="d">k6x</text><text x="6.012" y="1.67" class="d">run</text><text x="10.02" y="1.67" class="d">--filter</text><text x="19.038" y="1.67" class="d">&quot;[?contains(</text></svg><svg x="3990"><use xlink:href="#a"/><use xlink:href="#b" x="31.996"/><text y="1.67" class="c">$</text><text x="2.004" y="1.67" class="d">k6x</text><text x="6.012" y="1.67" class="d">run</text><text x="10.02" y="1.67" class="d">--filter</text><text x="19.038" y="1.67" class="d">&quot;[?contains(t</text></svg><svg x="4104"><use xlink:href="#a"/><use xlink:href="#b" x="32.996"/><text y="1.67" class="c">$</text><text x="2.004" y="1.67" class="d">k6x</text><text x="6.012" y="1.67" class="d">run</text><text x="10.02" y="1.67" class="d">--filter</text><text x="19.038" y="1.67" class="d">&quot;[?contains(ti</text></svg><svg x="4218"><use xlink:href="#a"/><use xlink:href="#b" x="33.996"/><text y="1.67" class="c">$</text><text x="2.004" y="1.67" class="d">k6x</text><text x="6.012" y="1.67" class="d">run</text><text x="10.02" y="1.67" class="d">--filter</text><text x="19.038" y="1.67" class="d">&quot;[?contains(tie</text></svg><svg x="4332"><use xlink:href="#a"/><use xlink:href="#b" x="34.996"/><text y="1.67" class="c">$</text><text x="2.004" y="1.67" class="d">k6x</text><text x="6.012" y="1.67" class="d">run</text><text x="10.02" y="1.67" class="d">--filter</text><text x="19.038" y="1.67" class="d">&quot;[?contains(tier</text></svg><svg x="4446"><use xlink:href="#a"/><use xlink:href="#b" x="35.996"/><text y="1.67" class="c">$</text><text x="2.004" y="1.67" class="d">k6x</text><text x="6.012" y="1.67" class="d">run</text><text x="10.02" y="1.67" class="d">--filter</text><text x="19.038" y="1.67" class="d">&quot;[?contains(tiers</text></svg><svg x="4560"><use xlink:href="#a"/><use xlink:href="#b" x="36.996"/><text y="1.67" class="c">$</text><text x="2.004" y="1.67" class="d">k6x</text><text x="6.012" y="1.67" class="d">run</text><text x="10.02" y="1.67" class="d">--filter</text><text x="19.038" y="1.67" class="d">&quot;[?contains(tiers,</text></svg><svg x="4674"><use xlink:href="#a"/><use xlink:href="#b" x="37.996"/><text y="1.67" class="c">$</text><text x="2.004" y="1.67" class="d">k6x</text><text x="6.012" y="1.67" class="d">run</text><text x="10.02" y="1.67" class="d">--filter</text><text x="19.038" y="1.67" class="d">&quot;[?contains(tiers,&apos;</text></svg><svg x="4788"><use xlink:href="#a"/><use xlink:href="#b" x="38.996"/><text y="1.67" class="c">$</text><text x="2.004" y="1.67" class="d">k6x</text><text x="6.012" y="1.67" class="d">run</text><text x="10.02" y="1.67" class="d">--filter</text><text x="19.038" y="1.67" class="d">&quot;[?contains(tiers,&apos;O</text></svg><svg x="4902"><use xlink:href="#a"/><use xlink:href="#b" x="39.996"/><text y="1.67" class="c">$</text><text x="2.004" y="1.67" class="d">k6x</text><text x="6.012" y="1.67" class="d">run</text><text x="10.02" y="1.67" class="d">--filter</text><text x="19.038" y="1.67" class="d">&quot;[?contains(tiers,&apos;Of</text></svg><svg x="5016"><use xlink:href="#a"/><use xlink:href="#b" x="40.996"/><text y="1.67" class="c">$</text><text x="2.004" y="1.67" class="d">k6x</text><text x="6.012" y="1.67" class="d">run</text><text x="10.02" y="1.67" class="d">--filter</text><text x="19.038" y="1.67" class="d">&quot;[?contains(tiers,&apos;Off</text></svg><svg x="5130"><use xlink:href="#a"/><use xlink:href="#b" x="41.996"/><text y="1.67" class="c">$</text><text x="2.004" y="1.67" class="d">k6x</text><text x="6.012" y="1.67" class="d">run</text><text x="10.02" y="1.67" class="d">--filter</text><text x="19.038" y="1.67" class="d">&quot;[?contains(tiers,&apos;Offi</text></svg><svg x="5244"><use xlink:href="#a"/><use xlink:href="#b" x="42.996"/><text y="1.67" class="c">$</text><text x="2.004" y="1.67" class="d">k6x</text><text x="6.012" y="1.67" class="d">run</text><text x="10.02" y="1.67" class="d">--filter</text><text x="19.038" y="1.67" class="d">&quot;[?contains(tiers,&apos;Offic</text></svg><svg x="5358"><use xlink:href="#a"/><use xlink:href="#b" x="43.996"/><text y="1.67" class="c">$</text><text x="2.004" y="1.67" class="d">k6x</text><text x="6.012" y="1.67" class="d">run</text><text x="10.02" y="1.67" class="d">--filter</text><text x="19.038" y="1.67" class="d">&quot;[?contains(tiers,&apos;Offici</text></svg><svg x="5472"><use xlink:href="#a"/><use xlink:href="#b" x="44.996"/><text y="1.67" class="c">$</text><text x="2.004" y="1.67" class="d">k6x</text><text x="6.012" y="1.67" class="d">run</text><text x="10.02" y="1.67" class="d">--filter</text><text x="19.038" y="1.67" class="d">&quot;[?contains(tiers,&apos;Officia</text></svg><svg x="5586"><use xlink:href="#a"/><use xlink:href="#b" x="45.996"/><text y="1.67" class="c">$</text><text x="2.004" y="1.67" class="d">k6x</text><text x="6.012" y="1.67" class="d">run</text><text x="10.02" y="1.67" class="d">--filter</text><text x="19.038" y="1.67" class="d">&quot;[?contains(tiers,&apos;Official</text></svg><svg x="5700"><use xlink:href="#a"/><use xlink:href="#b" x="46.996"/><text y="1.67" class="c">$</text><text x="2.004" y="1.67" class="d">k6x</text><text x="6.012" y="1.67" class="d">run</text><text x="10.02" y="1.67" class="d">--filter</text><text x="19.038" y="1.67" class="d">&quot;[?contains(tiers,&apos;Official&apos;</text></svg><svg x="5814"><use xlink:href="#a"/><use xlink:href="#b" x="47.996"/><text y="1.67" class="c">$</text><text x="2.004" y="1.67" class="d">k6x</text><text x="6.012" y="1.67" class="d">run</text><text x="10.02" y="1.67" class="d">--filter</text><text x="19.038" y="1.67" class="d">&quot;[?contains(tiers,&apos;Official&apos;)</text></svg><svg x="5928"><use xlink:href="#a"/><use xlink:href="#b" x="48.996"/><text y="1.67" class="c">$</text><text x="2.004" y="1.67" class="d">k6x</text><text x="6.012" y="1.67" class="d">run</text><text x="10.02" y="1.67" class="d">--filter</text><text x="19.038" y="1.67" class="d">&quot;[?contains(tiers,&apos;Official&apos;)]</text></svg><svg x="6042"><use xlink:href="#a"/><use xlink:href="#b" x="49.996"/><use xlink:href="#5"/></svg><svg x="6156"><use xlink:href="#a"/><use xlink:href="#b" x="50.996"/><use xlink:href="#5"/></svg><svg x="6270"><use xlink:href="#a"/><use xlink:href="#b" x="51.996"/><text y="1.67" class="c">$</text><text x="2.004" y="1.67" class="d">k6x</text><text x="6.012" y="1.67" class="d">run</text><text x="10.02" y="1.67" class="d">--filter</text><text x="19.038" y="1.67" class="d">&quot;[?contains(tiers,&apos;Official&apos;)]&quot;</text><text x="51.102" y="1.67" class="d">s</text></svg><svg x="6384"><use xlink:href="#a"/><use xlink:href="#b" x="52.996"/><text y="1.67" class="c">$</text><text x="2.004" y="1.67" class="d">k6x</text><text x="6.012" y="1.67" class="d">run</text><text x="10.02" y="1.67" class="d">--filter</text><text x="19.038" y="1.67" class="d">&quot;[?contains(tiers,&apos;Official&apos;)]&quot;</text><text x="51.102" y="1.67" class="d">sc</text></svg><svg x="6498"><use xlink:href="#a"/><use xlink:href="#b" x="53.996"/><text y="1.67" class="c">$</text><text x="2.004" y="1.67" class="d">k6x</text><text x="6.012" y="1.67" class="d">run</text><text x="10.02" y="1.67" class="d">--filter</text><text x="19.038" y="1.67" class="d">&quot;[?contains(tiers,&apos;Official&apos;)]&quot;</text><text x="51.102" y="1.67" class="d">scr</text></svg><svg x="6612"><use xlink:href="#a"/><use xlink:href="#b" x="54.996"/><text y="1.67" class="c">$</text><text x="2.004" y="1.67" class="d">k6x</text><text x="6.012" y="1.67" class="d">run</text><text x="10.02" y="1.67" class="d">--filter</text><text x="19.038" y="1.67" class="d">&quot;[?contains(tiers,&apos;Official&apos;)]&quot;</text><text x="51.102" y="1.67" class="d">scri</text></svg><svg x="6726"><use xlink:href="#a"/><use xlink:href="#b" x="55.996"/><text y="1.67" class="c">$</text><text x="2.004" y="1.67" class="d">k6x</text><text x="6.012" y="1.67" class="d">run</text><text x="10.02" y="1.67" class="d">--filter</text><text x="19.038" y="1.67" class="d">&quot;[?contains(tiers,&apos;Official&apos;)]&quot;</text><text x="51.102" y="1.67" class="d">scrip</text></svg><svg x="6840"><use xlink:href="#a"/><use xlink:href="#b" x="56.996"/><text y="1.67" class="c">$</text><text x="2.004" y="1.67" class="d">k6x</text><text x="6.012" y="1.67" class="d">run</text><text x="10.02" y="1.67" class="d">--filter</text><text x="19.038" y="1.67" class="d">&quot;[?contains(tiers,&apos;Official&apos;)]&quot;</text><text x="51.102" y="1.67" class="d">script</text></svg><svg x="6954"><use xlink:href="#a"/><use xlink:href="#b" x="57.996"/><text y="1.67" class="c">$</text><text x="2.004" y="1.67" class="d">k6x</text><text x="6.012" y="1.67" class="d">run</text><text x="10.02" y="1.67" class="d">--filter</text><text x="19.038" y="1.67" class="d">&quot;[?contains(tiers,&apos;Official&apos;)]&quot;</text><text x="51.102" y="1.67" class="d">script.</text></svg><svg x="7068"><use xlink:href="#a"/><use xlink:href="#b" x="58.996"/><text y="1.67" class="c">$</text><text x="2.004" y="1.67" class="d">k6x</text><text x="6.012" y="1.67" class="d">run</text><text x="10.02" y="1.67" class="d">--filter</text><text x="19.038" y="1.67" class="d">&quot;[?contains(tiers,&apos;Official&apos;)]&quot;</text><text x="51.102" y="1.67" class="d">script.j</text></svg><svg x="7182"><use xlink:href="#a"/><use xlink:href="#b" x="59.996"/><use xlink:href="#6"/></svg><svg x="7296"><use xlink:href="#a"/><use xlink:href="#b" x="59.996"/><use xlink:href="#6"/></svg><svg x="7410"><use xlink:href="#a"/><use xlink:href="#b" x="-.004" y="2.146"/><use xlink:href="#6"/></svg><svg x="7524"><use xlink:href="#a"/><use xlink:href="#b" x="-.004" y="2.146"/><use xlink:href="#6"/></svg><svg x="7638"><use xlink:href="#a"/><use xlink:href="#6"/></svg><svg x="7752"><use xlink:href="#a"/><use xlink:href="#6"/><text y="3.841" class="d">k6x</text><text x="4.008" y="3.841" class="j">[=</text><text x="9.018" y="3.841" class="j">]</text><text x="11.022" y="3.841" class="d">search</text><text x="18.036" y="3.841" class="d">for</text><text x="22.044" y="3.841" class="d">dependencies</text></svg><svg x="7866"><use xlink:href="#a"/><use xlink:href="#6"/><text y="3.841" class="d">k6x</text><text x="4.008" y="3.841" class="j">[==</text><text x="9.018" y="3.841" class="j">]</text><text x="11.022" y="3.841" class="d">resolving</text><text x="21.042" y="3.841" class="d">dependencies</text></svg><svg x="7980"><use xlink:href="#a"/><use xlink:href="#b" x="-.004" y="10.83"/><use xlink:href="#6"/><use xlink:href="#7" y="2.171"/><use xlink:href="#8" y="4.342"/><use xlink:href="#9" y="6.513"/><use xlink:href="#10" y="8.684"/></svg><svg x="8094"><use xlink:href="#a"/><use xlink:href="#b" x="-.004" y="10.83"/><use xlink:href="#6"/><use xlink:href="#7" y="2.171"/><use xlink:href="#8" y="4.342"/><use xlink:href="#9" y="6.513"/><use xlink:href="#10" y="8.684"/></svg><svg x="8208"><use xlink:href="#a"/><use xlink:href="#b" x="-.004" y="10.83"/><use xlink:href="#6"/><use xlink:href="#7" y="2.171"/><use xlink:href="#8" y="4.342"/><use xlink:href="#9" y="6.513"/><use xlink:href="#10" y="8.684"/></svg><svg x="8322"><use xlink:href="#a"/><use xlink:href="#b" x="-.004" y="10.83"/><use xlink:href="#6"/><use xlink:href="#7" y="2.171"/><use xlink:href="#8" y="4.342"/><use xlink:href="#9" y="6.513"/><use xlink:href="#10" y="8.684"/></svg><svg x="8436"><use xlink:href="#a"/><use xlink:href="#b" x="1.996" y="10.83"/><use xlink:href="#6"/><use xlink:href="#7" y="2.171"/><use xlink:href="#8" y="4.342"/><use xlink:href="#9" y="6.513"/><use xlink:href="#10" y="8.684"/><use xlink:href="#1" y="10.855"/></svg><svg x="8550"><use xlink:href="#a"/><use xlink:href="#b" x="1.996" y="10.83"/><use xlink:href="#6"/><use xlink:href="#7" y="2.171"/><use xlink:href="#8" y="4.342"/><use xlink:href="#9" y="6.513"/><use xlink:href="#10" y="8.684"/><use xlink:href="#1" y="10.855"/></svg><svg x="8664"><use xlink:href="#a"/><use xlink:href="#b" x="-.004" y="13.001"/><use xlink:href="#6"/><use xlink:href="#7" y="2.171"/><use xlink:href="#8" y="4.342"/><use xlink:href="#9" y="6.513"/><use xlink:href="#10" y="8.684"/><use xlink:href="#1" y="10.855"/></svg></svg></g></g></svg></svg>