<svg xmlns="http://www.w3.org/2000/svg" xmlns:xlink="http://www.w3.org/1999/xlink" width="1140" height="434.2"><rect width="1140" height="434.2" rx="0" ry="0" class="a"/><svg height="434.2" viewBox="0 0 114 43.42" width="1140" xmlns="http://www.w3.org/2000/svg" xmlns:xlink="http://www.w3.org/1999/xlink"><style>@keyframes g{0%{transform:translateX(0)}.79%{transform:translateX(-114px)}.8%{transform:translateX(-456px)}2.44%{transform:translateX(-570px)}2.71%{transform:translateX(-684px)}3.05%{transform:translateX(-798px)}3.31%{transform:translateX(-912px)}4.84%{transform:translateX(-1026px)}5.13%{transform:translateX(-1140px)}5.81%{transform:translateX(-1254px)}6.49%{transform:translateX(-1368px)}7.26%{transform:translateX(-1482px)}7.57%{transform:translateX(-1596px)}7.82%{transform:translateX(-1710px)}9.86%{transform:translateX(-1824px)}10.16%{transform:translateX(-1938px)}11.01%{transform:translateX(-2052px)}11.41%{transform:translateX(-2166px)}12.07%{transform:translateX(-2280px)}14.26%{transform:translateX(-2394px)}14.62%{transform:translateX(-2508px)}14.89%{transform:translateX(-2622px)}15.3%{transform:translateX(-2736px)}16%{transform:translateX(-2850px)}16.26%{transform:translateX(-2964px)}16.75%{transform:translateX(-3078px)}17.76%{transform:translateX(-3192px)}18.12%{transform:translateX(-3306px)}19.54%{transform:translateX(-3420px)}19.81%{transform:translateX(-3534px)}22.17%{transform:translateX(-3648px)}22.55%{transform:translateX(-3762px)}23.67%{transform:translateX(-3876px)}24.41%{transform:translateX(-3990px)}24.68%{transform:translateX(-4104px)}25.05%{transform:translateX(-4218px)}25.31%{transform:translateX(-4332px)}25.57%{transform:translateX(-4446px)}25.96%{transform:translateX(-4560px)}26.52%{transform:translateX(-4674px)}26.79%{transform:translateX(-4788px)}28.33%{transform:translateX(-4902px)}29.22%{transform:translateX(-5016px)}29.49%{transform:translateX(-5130px)}31.61%{transform:translateX(-5244px)}32.05%{transform:translateX(-5358px)}32.79%{transform:translateX(-5472px)}33.05%{transform:translateX(-5586px)}33.32%{transform:translateX(-5700px)}33.65%{transform:translateX(-5814px)}34.91%{transform:translateX(-5928px)}35.39%{transform:translateX(-6042px)}35.92%{transform:translateX(-6156px)}36.24%{transform:translateX(-6270px)}36.51%{transform:translateX(-6384px)}37.15%{transform:translateX(-6498px)}38.08%{transform:translateX(-6612px)}38.76%{transform:translateX(-6726px)}41.39%{transform:translateX(-6840px)}42.15%{transform:translateX(-6954px)}43.47%{transform:translateX(-7068px)}46.11%{transform:translateX(-7182px)}46.38%{transform:translateX(-7296px)}46.73%{transform:translateX(-7410px)}47.08%{transform:translateX(-7524px)}47.35%{transform:translateX(-7638px)}47.68%{transform:translateX(-7752px)}48.36%{transform:translateX(-7866px)}48.62%{transform:translateX(-7980px)}50.47%{transform:translateX(-8208px)}50.48%{transform:translateX(-8322px)}50.52%{transform:translateX(-8436px)}56.84%{transform:translateX(-8550px)}58.26%{transform:translateX(-8664px)}63.28%{transform:translateX(-8892px)}63.3%{transform:translateX(-9120px)}63.31%{transform:translateX(-9576px)}63.58%{transform:translateX(-9690px)}63.86%{transform:translateX(-9804px)}65.67%{transform:translateX(-9918px)}65.96%{transform:translateX(-10032px)}66.23%{transform:translateX(-10146px)}66.63%{transform:translateX(-10260px)}66.89%{transform:translateX(-10374px)}67.15%{transform:translateX(-10488px)}67.68%{transform:translateX(-10602px)}67.97%{transform:translateX(-10716px)}70.15%{transform:translateX(-10944px)}70.16%{transform:translateX(-11058px)}70.17%{transform:translateX(-11172px)}70.18%{transform:translateX(-11400px)}70.19%{transform:translateX(-11514px)}80.73%{transform:translateX(-11628px)}81%{transform:translateX(-11742px)}82.97%{transform:translateX(-11856px)}84.02%{transform:translateX(-11970px)}85.23%{transform:translateX(-12084px)}86.1%{transform:translateX(-12198px)}86.56%{transform:translateX(-12312px)}86.83%{transform:translateX(-12426px)}87.27%{transform:translateX(-12540px)}87.64%{transform:translateX(-12654px)}87.9%{transform:translateX(-12768px)}88.17%{transform:translateX(-12882px)}89.18%{transform:translateX(-12996px)}89.19%{transform:translateX(-13224px)}89.44%{transform:translateX(-13338px)}89.45%{transform:translateX(-13680px)}89.46%{transform:translateX(-14022px)}to{transform:translateX(-14136px)}}.a{fill:#282d35}.c,.d{fill:#a8cc8c;white-space:pre}.d{fill:#b9c0cb}</style><g font-family="Monaco,Consolas,Menlo,'Bitstream Vera Sans Mono','Powerline Symbols',monospace" font-size="1.67"><defs><symbol id="1"><text y="1.67" class="c">$</text></symbol><symbol id="2"><text y="1.67" class="c">$</text><text x="2.004" y="1.67" class="d">c</text></symbol><symbol id="3"><text y="1.67" class="c">$</text><text x="2.004" y="1.67" class="d">curl</text></symbol><symbol id="4"><text y="1.67" class="c">$</text><text x="2.004" y="1.67" class="d">curl</text><text x="7.014" y="1.67" class="d">-OJL</text></symbol><symbol id="5"><text y="1.67" class="c">$</text><text x="2.004" y="1.67" class="d">curl</text><text x="7.014" y="1.67" class="d">-OJL</text><text x="12.024" y="1.67" class="d">$K6X_BUILDER_SERVICE/linux/amd64/dashboard,top,k6/x/faker</text></symbol><symbol id="6"><text x="2.004" y="1.67" class="d">%</text><text x="4.008" y="1.67" class="d">Total</text><text x="13.026" y="1.67" class="d">%</text><text x="15.03" y="1.67" class="d">Received</text><text x="24.048" y="1.67" class="d">%</text><text x="26.052" y="1.67" class="d">Xferd</text><text x="33.066" y="1.67" class="d">Average</text><text x="41.082" y="1.67" class="d">Speed</text><text x="49.098" y="1.67" class="d">Time</text><text x="57.114" y="1.67" class="d">Time</text><text x="66.132" y="1.67" class="d">Time</text><text x="72.144" y="1.67" class="d">Current</text></symbol><symbol id="7"><text x="33.066" y="1.67" class="d">Dload</text><text x="40.08" y="1.67" class="d">Upload</text><text x="49.098" y="1.67" class="d">Total</text><text x="57.114" y="1.67" class="d">Spent</text><text x="66.132" y="1.67" class="d">Left</text><text x="72.144" y="1.67" class="d">Speed</text></symbol><symbol id="8"><text y="1.67" class="d">100</text><text x="6.012" y="1.67" class="d">105</text><text x="13.026" y="1.67" class="d">0</text><text x="17.034" y="1.67" class="d">105</text><text x="24.048" y="1.67" class="d">0</text><text x="30.06" y="1.67" class="d">0</text><text x="36.072" y="1.67" class="d">87</text><text x="44.088" y="1.67" class="d">0</text><text x="46.092" y="1.67" class="d">--:--:--</text><text x="56.112" y="1.67" class="d">0:00:01</text><text x="64.128" y="1.67" class="d">--:--:--</text><text x="76.152" y="1.67" class="d">87</text></symbol><symbol id="9"><text y="1.67" class="d">100</text><text x="4.008" y="1.67" class="d">39.7M</text><text x="11.022" y="1.67" class="d">100</text><text x="15.03" y="1.67" class="d">39.7M</text><text x="24.048" y="1.67" class="d">0</text><text x="30.06" y="1.67" class="d">0</text><text x="33.066" y="1.67" class="d">16.4M</text><text x="44.088" y="1.67" class="d">0</text><text x="47.094" y="1.67" class="d">0:00:02</text><text x="56.112" y="1.67" class="d">0:00:02</text><text x="64.128" y="1.67" class="d">--:--:--</text><text x="73.146" y="1.67" class="d">34.3M</text></symbol><symbol id="10"><text y="1.67" class="c">$</text><text x="2.004" y="1.67" class="d">chmod</text></symbol><symbol id="11"><text y="1.67" class="c">$</text><text x="2.004" y="1.67" class="d">chmod</text><text x="8.016" y="1.67" class="d">+x</text></symbol><symbol id="12"><text y="1.67" class="c">$</text><text x="2.004" y="1.67" class="d">chmod</text><text x="8.016" y="1.67" class="d">+x</text><text x="11.022" y="1.67" class="d">k6</text></symbol><symbol id="13"><text y="1.67" class="c">$</text><text x="2.004" y="1.67" class="d">./k6</text></symbol><symbol id="14"><text y="1.67" class="c">$</text><text x="2.004" y="1.67" class="d">./k6</text><text x="7.014" y="1.67" class="d">version</text></symbol><symbol id="15"><text y="1.67" class="d">k6</text><text x="3.006" y="1.67" class="d">v0.47.0</text><text x="11.022" y="1.67" class="d">(go1.20.9,</text><text x="22.044" y="1.67" class="d">linux/amd64)</text></symbol><symbol id="16"><text y="1.67" class="d">Extensions:</text></symbol><symbol id="17"><text x="2.004" y="1.67" class="d">github.com/grafana/xk6-dashboard</text><text x="35.07" y="1.67" class="d">v0.6.0,</text><text x="43.086" y="1.67" class="d">dashboard</text><text x="53.106" y="1.67" class="d">[output]</text></symbol><symbol id="18"><text x="2.004" y="1.67" class="d">github.com/szkiba/xk6-faker</text><text x="30.06" y="1.67" class="d">v0.2.2,</text><text x="38.076" y="1.67" class="d">k6/x/faker</text><text x="49.098" y="1.67" class="d">[js]</text></symbol><symbol id="19"><text x="2.004" y="1.67" class="d">github.com/szkiba/xk6-top</text><text x="28.056" y="1.67" class="d">v0.1.1,</text><text x="36.072" y="1.67" class="d">top</text><text x="40.08" y="1.67" class="d">[output]</text></symbol><symbol id="a"><path fill="transparent" d="M0 0h114v21H0z"/></symbol><symbol id="b"><path fill="#6f7683" d="M0 0h1.102v2.171H0z"/></symbol></defs><path class="a" d="M0 0h114v43.42H0z"/><g style="animation-duration:18.978398s;animation-iteration-count:infinite;animation-name:g;animation-timing-function:steps(1,end)"><svg width="14250"><svg><use xlink:href="#a"/><use xlink:href="#b" x="-.004"/></svg><svg x="114"><use xlink:href="#a"/><use xlink:href="#b" x="-.004"/></svg><svg x="228"><use xlink:href="#a"/><use xlink:href="#b" x="-.004"/></svg><svg x="342"><use xlink:href="#a"/><use xlink:href="#b" x="1.996"/><use xlink:href="#1"/></svg><svg x="456"><use xlink:href="#a"/><use xlink:href="#b" x="2.996"/><use xlink:href="#2"/></svg><svg x="570"><use xlink:href="#a"/><use xlink:href="#b" x="3.996"/><text y="1.67" class="c">$</text><text x="2.004" y="1.67" class="d">cu</text></svg><svg x="684"><use xlink:href="#a"/><use xlink:href="#b" x="4.996"/><text y="1.67" class="c">$</text><text x="2.004" y="1.67" class="d">cur</text></svg><svg x="798"><use xlink:href="#a"/><use xlink:href="#b" x="5.996"/><use xlink:href="#3"/></svg><svg x="912"><use xlink:href="#a"/><use xlink:href="#b" x="6.996"/><use xlink:href="#3"/></svg><svg x="1026"><use xlink:href="#a"/><use xlink:href="#b" x="7.996"/><text y="1.67" class="c">$</text><text x="2.004" y="1.67" class="d">curl</text><text x="7.014" y="1.67" class="d">-</text></svg><svg x="1140"><use xlink:href="#a"/><use xlink:href="#b" x="8.996"/><text y="1.67" class="c">$</text><text x="2.004" y="1.67" class="d">curl</text><text x="7.014" y="1.67" class="d">-O</text></svg><svg x="1254"><use xlink:href="#a"/><use xlink:href="#b" x="9.996"/><text y="1.67" class="c">$</text><text x="2.004" y="1.67" class="d">curl</text><text x="7.014" y="1.67" class="d">-OJ</text></svg><svg x="1368"><use xlink:href="#a"/><use xlink:href="#b" x="10.996"/><use xlink:href="#4"/></svg><svg x="1482"><use xlink:href="#a"/><use xlink:href="#b" x="11.996"/><use xlink:href="#4"/></svg><svg x="1596"><use xlink:href="#a"/><use xlink:href="#b" x="12.996"/><text y="1.67" class="c">$</text><text x="2.004" y="1.67" class="d">curl</text><text x="7.014" y="1.67" class="d">-OJL</text><text x="12.024" y="1.67" class="d">$</text></svg><svg x="1710"><use xlink:href="#a"/><use xlink:href="#b" x="13.996"/><text y="1.67" class="c">$</text><text x="2.004" y="1.67" class="d">curl</text><text x="7.014" y="1.67" class="d">-OJL</text><text x="12.024" y="1.67" class="d">$K</text></svg><svg x="1824"><use xlink:href="#a"/><use xlink:href="#b" x="14.996"/><text y="1.67" class="c">$</text><text x="2.004" y="1.67" class="d">curl</text><text x="7.014" y="1.67" class="d">-OJL</text><text x="12.024" y="1.67" class="d">$K6</text></svg><svg x="1938"><use xlink:href="#a"/><use xlink:href="#b" x="15.996"/><text y="1.67" class="c">$</text><text x="2.004" y="1.67" class="d">curl</text><text x="7.014" y="1.67" class="d">-OJL</text><text x="12.024" y="1.67" class="d">$K6X</text></svg><svg x="2052"><use xlink:href="#a"/><use xlink:href="#b" x="16.996"/><text y="1.67" class="c">$</text><text x="2.004" y="1.67" class="d">curl</text><text x="7.014" y="1.67" class="d">-OJL</text><text x="12.024" y="1.67" class="d">$K6X_</text></svg><svg x="2166"><use xlink:href="#a"/><use xlink:href="#b" x="17.996"/><text y="1.67" class="c">$</text><text x="2.004" y="1.67" class="d">curl</text><text x="7.014" y="1.67" class="d">-OJL</text><text x="12.024" y="1.67" class="d">$K6X_B</text></svg><svg x="2280"><use xlink:href="#a"/><use xlink:href="#b" x="18.996"/><text y="1.67" class="c">$</text><text x="2.004" y="1.67" class="d">curl</text><text x="7.014" y="1.67" class="d">-OJL</text><text x="12.024" y="1.67" class="d">$K6X_BU</text></svg><svg x="2394"><use xlink:href="#a"/><use xlink:href="#b" x="19.996"/><text y="1.67" class="c">$</text><text x="2.004" y="1.67" class="d">curl</text><text x="7.014" y="1.67" class="d">-OJL</text><text x="12.024" y="1.67" class="d">$K6X_BUI</text></svg><svg x="2508"><use xlink:href="#a"/><use xlink:href="#b" x="20.996"/><text y="1.67" class="c">$</text><text x="2.004" y="1.67" class="d">curl</text><text x="7.014" y="1.67" class="d">-OJL</text><text x="12.024" y="1.67" class="d">$K6X_BUIL</text></svg><svg x="2622"><use xlink:href="#a"/><use xlink:href="#b" x="21.996"/><text y="1.67" class="c">$</text><text x="2.004" y="1.67" class="d">curl</text><text x="7.014" y="1.67" class="d">-OJL</text><text x="12.024" y="1.67" class="d">$K6X_BUILD</text></svg><svg x="2736"><use xlink:href="#a"/><use xlink:href="#b" x="22.996"/><text y="1.67" class="c">$</text><text x="2.004" y="1.67" class="d">curl</text><text x="7.014" y="1.67" class="d">-OJL</text><text x="12.024" y="1.67" class="d">$K6X_BUILDE</text></svg><svg x="2850"><use xlink:href="#a"/><use xlink:href="#b" x="23.996"/><text y="1.67" class="c">$</text><text x="2.004" y="1.67" class="d">curl</text><text x="7.014" y="1.67" class="d">-OJL</text><text x="12.024" y="1.67" class="d">$K6X_BUILDER</text></svg><svg x="2964"><use xlink:href="#a"/><use xlink:href="#b" x="24.996"/><text y="1.67" class="c">$</text><text x="2.004" y="1.67" class="d">curl</text><text x="7.014" y="1.67" class="d">-OJL</text><text x="12.024" y="1.67" class="d">$K6X_BUILDER_</text></svg><svg x="3078"><use xlink:href="#a"/><use xlink:href="#b" x="25.996"/><text y="1.67" class="c">$</text><text x="2.004" y="1.67" class="d">curl</text><text x="7.014" y="1.67" class="d">-OJL</text><text x="12.024" y="1.67" class="d">$K6X_BUILDER_S</text></svg><svg x="3192"><use xlink:href="#a"/><use xlink:href="#b" x="26.996"/><text y="1.67" class="c">$</text><text x="2.004" y="1.67" class="d">curl</text><text x="7.014" y="1.67" class="d">-OJL</text><text x="12.024" y="1.67" class="d">$K6X_BUILDER_SE</text></svg><svg x="3306"><use xlink:href="#a"/><use xlink:href="#b" x="27.996"/><text y="1.67" class="c">$</text><text x="2.004" y="1.67" class="d">curl</text><text x="7.014" y="1.67" class="d">-OJL</text><text x="12.024" y="1.67" class="d">$K6X_BUILDER_SER</text></svg><svg x="3420"><use xlink:href="#a"/><use xlink:href="#b" x="28.996"/><text y="1.67" class="c">$</text><text x="2.004" y="1.67" class="d">curl</text><text x="7.014" y="1.67" class="d">-OJL</text><text x="12.024" y="1.67" class="d">$K6X_BUILDER_SERV</text></svg><svg x="3534"><use xlink:href="#a"/><use xlink:href="#b" x="29.996"/><text y="1.67" class="c">$</text><text x="2.004" y="1.67" class="d">curl</text><text x="7.014" y="1.67" class="d">-OJL</text><text x="12.024" y="1.67" class="d">$K6X_BUILDER_SERVI</text></svg><svg x="3648"><use xlink:href="#a"/><use xlink:href="#b" x="30.996"/><text y="1.67" class="c">$</text><text x="2.004" y="1.67" class="d">curl</text><text x="7.014" y="1.67" class="d">-OJL</text><text x="12.024" y="1.67" class="d">$K6X_BUILDER_SERVIC</text></svg><svg x="3762"><use xlink:href="#a"/><use xlink:href="#b" x="31.996"/><text y="1.67" class="c">$</text><text x="2.004" y="1.67" class="d">curl</text><text x="7.014" y="1.67" class="d">-OJL</text><text x="12.024" y="1.67" class="d">$K6X_BUILDER_SERVICE</text></svg><svg x="3876"><use xlink:href="#a"/><use xlink:href="#b" x="32.996"/><text y="1.67" class="c">$</text><text x="2.004" y="1.67" class="d">curl</text><text x="7.014" y="1.67" class="d">-OJL</text><text x="12.024" y="1.67" class="d">$K6X_BUILDER_SERVICE/</text></svg><svg x="3990"><use xlink:href="#a"/><use xlink:href="#b" x="33.996"/><text y="1.67" class="c">$</text><text x="2.004" y="1.67" class="d">curl</text><text x="7.014" y="1.67" class="d">-OJL</text><text x="12.024" y="1.67" class="d">$K6X_BUILDER_SERVICE/l</text></svg><svg x="4104"><use xlink:href="#a"/><use xlink:href="#b" x="34.996"/><text y="1.67" class="c">$</text><text x="2.004" y="1.67" class="d">curl</text><text x="7.014" y="1.67" class="d">-OJL</text><text x="12.024" y="1.67" class="d">$K6X_BUILDER_SERVICE/li</text></svg><svg x="4218"><use xlink:href="#a"/><use xlink:href="#b" x="35.996"/><text y="1.67" class="c">$</text><text x="2.004" y="1.67" class="d">curl</text><text x="7.014" y="1.67" class="d">-OJL</text><text x="12.024" y="1.67" class="d">$K6X_BUILDER_SERVICE/lin</text></svg><svg x="4332"><use xlink:href="#a"/><use xlink:href="#b" x="36.996"/><text y="1.67" class="c">$</text><text x="2.004" y="1.67" class="d">curl</text><text x="7.014" y="1.67" class="d">-OJL</text><text x="12.024" y="1.67" class="d">$K6X_BUILDER_SERVICE/linu</text></svg><svg x="4446"><use xlink:href="#a"/><use xlink:href="#b" x="37.996"/><text y="1.67" class="c">$</text><text x="2.004" y="1.67" class="d">curl</text><text x="7.014" y="1.67" class="d">-OJL</text><text x="12.024" y="1.67" class="d">$K6X_BUILDER_SERVICE/linux</text></svg><svg x="4560"><use xlink:href="#a"/><use xlink:href="#b" x="38.996"/><text y="1.67" class="c">$</text><text x="2.004" y="1.67" class="d">curl</text><text x="7.014" y="1.67" class="d">-OJL</text><text x="12.024" y="1.67" class="d">$K6X_BUILDER_SERVICE/linux/</text></svg><svg x="4674"><use xlink:href="#a"/><use xlink:href="#b" x="39.996"/><text y="1.67" class="c">$</text><text x="2.004" y="1.67" class="d">curl</text><text x="7.014" y="1.67" class="d">-OJL</text><text x="12.024" y="1.67" class="d">$K6X_BUILDER_SERVICE/linux/a</text></svg><svg x="4788"><use xlink:href="#a"/><use xlink:href="#b" x="40.996"/><text y="1.67" class="c">$</text><text x="2.004" y="1.67" class="d">curl</text><text x="7.014" y="1.67" class="d">-OJL</text><text x="12.024" y="1.67" class="d">$K6X_BUILDER_SERVICE/linux/am</text></svg><svg x="4902"><use xlink:href="#a"/><use xlink:href="#b" x="41.996"/><text y="1.67" class="c">$</text><text x="2.004" y="1.67" class="d">curl</text><text x="7.014" y="1.67" class="d">-OJL</text><text x="12.024" y="1.67" class="d">$K6X_BUILDER_SERVICE/linux/amd</text></svg><svg x="5016"><use xlink:href="#a"/><use xlink:href="#b" x="42.996"/><text y="1.67" class="c">$</text><text x="2.004" y="1.67" class="d">curl</text><text x="7.014" y="1.67" class="d">-OJL</text><text x="12.024" y="1.67" class="d">$K6X_BUILDER_SERVICE/linux/amd6</text></svg><svg x="5130"><use xlink:href="#a"/><use xlink:href="#b" x="43.996"/><text y="1.67" class="c">$</text><text x="2.004" y="1.67" class="d">curl</text><text x="7.014" y="1.67" class="d">-OJL</text><text x="12.024" y="1.67" class="d">$K6X_BUILDER_SERVICE/linux/amd64</text></svg><svg x="5244"><use xlink:href="#a"/><use xlink:href="#b" x="44.996"/><text y="1.67" class="c">$</text><text x="2.004" y="1.67" class="d">curl</text><text x="7.014" y="1.67" class="d">-OJL</text><text x="12.024" y="1.67" class="d">$K6X_BUILDER_SERVICE/linux/amd64/</text></svg><svg x="5358"><use xlink:href="#a"/><use xlink:href="#b" x="45.996"/><text y="1.67" class="c">$</text><text x="2.004" y="1.67" class="d">curl</text><text x="7.014" y="1.67" class="d">-OJL</text><text x="12.024" y="1.67" class="d">$K6X_BUILDER_SERVICE/linux/amd64/d</text></svg><svg x="5472"><use xlink:href="#a"/><use xlink:href="#b" x="46.996"/><text y="1.67" class="c">$</text><text x="2.004" y="1.67" class="d">curl</text><text x="7.014" y="1.67" class="d">-OJL</text><text x="12.024" y="1.67" class="d">$K6X_BUILDER_SERVICE/linux/amd64/da</text></svg><svg x="5586"><use xlink:href="#a"/><use xlink:href="#b" x="47.996"/><text y="1.67" class="c">$</text><text x="2.004" y="1.67" class="d">curl</text><text x="7.014" y="1.67" class="d">-OJL</text><text x="12.024" y="1.67" class="d">$K6X_BUILDER_SERVICE/linux/amd64/das</text></svg><svg x="5700"><use xlink:href="#a"/><use xlink:href="#b" x="48.996"/><text y="1.67" class="c">$</text><text x="2.004" y="1.67" class="d">curl</text><text x="7.014" y="1.67" class="d">-OJL</text><text x="12.024" y="1.67" class="d">$K6X_BUILDER_SERVICE/linux/amd64/dash</text></svg><svg x="5814"><use xlink:href="#a"/><use xlink:href="#b" x="49.996"/><text y="1.67" class="c">$</text><text x="2.004" y="1.67" class="d">curl</text><text x="7.014" y="1.67" class="d">-OJL</text><text x="12.024" y="1.67" class="d">$K6X_BUILDER_SERVICE/linux/amd64/dashb</text></svg><svg x="5928"><use xlink:href="#a"/><use xlink:href="#b" x="50.996"/><text y="1.67" class="c">$</text><text x="2.004" y="1.67" class="d">curl</text><text x="7.014" y="1.67" class="d">-OJL</text><text x="12.024" y="1.67" class="d">$K6X_BUILDER_SERVICE/linux/amd64/dashbo</text></svg><svg x="6042"><use xlink:href="#a"/><use xlink:href="#b" x="51.996"/><text y="1.67" class="c">$</text><text x="2.004" y="1.67" class="d">curl</text><text x="7.014" y="1.67" class="d">-OJL</text><text x="12.024" y="1.67" class="d">$K6X_BUILDER_SERVICE/linux/amd64/dashboa</text></svg><svg x="6156"><use xlink:href="#a"/><use xlink:href="#b" x="52.996"/><text y="1.67" class="c">$</text><text x="2.004" y="1.67" class="d">curl</text><text x="7.014" y="1.67" class="d">-OJL</text><text x="12.024" y="1.67" class="d">$K6X_BUILDER_SERVICE/linux/amd64/dashboar</text></svg><svg x="6270"><use xlink:href="#a"/><use xlink:href="#b" x="53.996"/><text y="1.67" class="c">$</text><text x="2.004" y="1.67" class="d">curl</text><text x="7.014" y="1.67" class="d">-OJL</text><text x="12.024" y="1.67" class="d">$K6X_BUILDER_SERVICE/linux/amd64/dashboard</text></svg><svg x="6384"><use xlink:href="#a"/><use xlink:href="#b" x="54.996"/><text y="1.67" class="c">$</text><text x="2.004" y="1.67" class="d">curl</text><text x="7.014" y="1.67" class="d">-OJL</text><text x="12.024" y="1.67" class="d">$K6X_BUILDER_SERVICE/linux/amd64/dashboard,</text></svg><svg x="6498"><use xlink:href="#a"/><use xlink:href="#b" x="55.996"/><text y="1.67" class="c">$</text><text x="2.004" y="1.67" class="d">curl</text><text x="7.014" y="1.67" class="d">-OJL</text><text x="12.024" y="1.67" class="d">$K6X_BUILDER_SERVICE/linux/amd64/dashboard,t</text></svg><svg x="6612"><use xlink:href="#a"/><use xlink:href="#b" x="56.996"/><text y="1.67" class="c">$</text><text x="2.004" y="1.67" class="d">curl</text><text x="7.014" y="1.67" class="d">-OJL</text><text x="12.024" y="1.67" class="d">$K6X_BUILDER_SERVICE/linux/amd64/dashboard,to</text></svg><svg x="6726"><use xlink:href="#a"/><use xlink:href="#b" x="57.996"/><text y="1.67" class="c">$</text><text x="2.004" y="1.67" class="d">curl</text><text x="7.014" y="1.67" class="d">-OJL</text><text x="12.024" y="1.67" class="d">$K6X_BUILDER_SERVICE/linux/amd64/dashboard,top</text></svg><svg x="6840"><use xlink:href="#a"/><use xlink:href="#b" x="58.996"/><text y="1.67" class="c">$</text><text x="2.004" y="1.67" class="d">curl</text><text x="7.014" y="1.67" class="d">-OJL</text><text x="12.024" y="1.67" class="d">$K6X_BUILDER_SERVICE/linux/amd64/dashboard,top,</text></svg><svg x="6954"><use xlink:href="#a"/><use xlink:href="#b" x="59.996"/><text y="1.67" class="c">$</text><text x="2.004" y="1.67" class="d">curl</text><text x="7.014" y="1.67" class="d">-OJL</text><text x="12.024" y="1.67" class="d">$K6X_BUILDER_SERVICE/linux/amd64/dashboard,top,k</text></svg><svg x="7068"><use xlink:href="#a"/><use xlink:href="#b" x="60.996"/><text y="1.67" class="c">$</text><text x="2.004" y="1.67" class="d">curl</text><text x="7.014" y="1.67" class="d">-OJL</text><text x="12.024" y="1.67" class="d">$K6X_BUILDER_SERVICE/linux/amd64/dashboard,top,k6</text></svg><svg x="7182"><use xlink:href="#a"/><use xlink:href="#b" x="61.996"/><text y="1.67" class="c">$</text><text x="2.004" y="1.67" class="d">curl</text><text x="7.014" y="1.67" class="d">-OJL</text><text x="12.024" y="1.67" class="d">$K6X_BUILDER_SERVICE/linux/amd64/dashboard,top,k6/</text></svg><svg x="7296"><use xlink:href="#a"/><use xlink:href="#b" x="62.996"/><text y="1.67" class="c">$</text><text x="2.004" y="1.67" class="d">curl</text><text x="7.014" y="1.67" class="d">-OJL</text><text x="12.024" y="1.67" class="d">$K6X_BUILDER_SERVICE/linux/amd64/dashboard,top,k6/x</text></svg><svg x="7410"><use xlink:href="#a"/><use xlink:href="#b" x="63.996"/><text y="1.67" class="c">$</text><text x="2.004" y="1.67" class="d">curl</text><text x="7.014" y="1.67" class="d">-OJL</text><text x="12.024" y="1.67" class="d">$K6X_BUILDER_SERVICE/linux/amd64/dashboard,top,k6/x/</text></svg><svg x="7524"><use xlink:href="#a"/><use xlink:href="#b" x="64.996"/><text y="1.67" class="c">$</text><text x="2.004" y="1.67" class="d">curl</text><text x="7.014" y="1.67" class="d">-OJL</text><text x="12.024" y="1.67" class="d">$K6X_BUILDER_SERVICE/linux/amd64/dashboard,top,k6/x/f</text></svg><svg x="7638"><use xlink:href="#a"/><use xlink:href="#b" x="65.996"/><text y="1.67" class="c">$</text><text x="2.004" y="1.67" class="d">curl</text><text x="7.014" y="1.67" class="d">-OJL</text><text x="12.024" y="1.67" class="d">$K6X_BUILDER_SERVICE/linux/amd64/dashboard,top,k6/x/fa</text></svg><svg x="7752"><use xlink:href="#a"/><use xlink:href="#b" x="66.996"/><text y="1.67" class="c">$</text><text x="2.004" y="1.67" class="d">curl</text><text x="7.014" y="1.67" class="d">-OJL</text><text x="12.024" y="1.67" class="d">$K6X_BUILDER_SERVICE/linux/amd64/dashboard,top,k6/x/fak</text></svg><svg x="7866"><use xlink:href="#a"/><use xlink:href="#b" x="67.996"/><text y="1.67" class="c">$</text><text x="2.004" y="1.67" class="d">curl</text><text x="7.014" y="1.67" class="d">-OJL</text><text x="12.024" y="1.67" class="d">$K6X_BUILDER_SERVICE/linux/amd64/dashboard,top,k6/x/fake</text></svg><svg x="7980"><use xlink:href="#a"/><use xlink:href="#b" x="68.996"/><use xlink:href="#5"/></svg><svg x="8094"><use xlink:href="#a"/><use xlink:href="#b" x="68.996"/><use xlink:href="#5"/></svg><svg x="8208"><use xlink:href="#a"/><use xlink:href="#b" x="-.004" y="2.146"/><use xlink:href="#5"/></svg><svg x="8322"><use xlink:href="#a"/><use xlink:href="#b" x="-.004" y="2.146"/><use xlink:href="#5"/></svg><svg x="8436"><use xlink:href="#a"/><use xlink:href="#b" x="77.996" y="6.488"/><use xlink:href="#5"/><use xlink:href="#6" y="2.171"/><use xlink:href="#7" y="4.342"/><text x="2.004" y="8.183" class="d">0</text><text x="8.016" y="8.183" class="d">0</text><text x="13.026" y="8.183" class="d">0</text><text x="19.038" y="8.183" class="d">0</text><text x="24.048" y="8.183" class="d">0</text><text x="30.06" y="8.183" class="d">0</text><text x="37.074" y="8.183" class="d">0</text><text x="44.088" y="8.183" class="d">0</text><text x="46.092" y="8.183" class="d">--:--:--</text><text x="55.11" y="8.183" class="d">--:--:--</text><text x="64.128" y="8.183" class="d">--:--:--</text><text x="77.154" y="8.183" class="d">0</text></svg><svg x="8550"><use xlink:href="#a"/><use xlink:href="#b" x="-.004" y="8.659"/><use xlink:href="#5"/><use xlink:href="#6" y="2.171"/><use xlink:href="#7" y="4.342"/><use xlink:href="#8" y="6.513"/></svg><svg x="8664"><use xlink:href="#a"/><use xlink:href="#b" x="77.996" y="8.659"/><use xlink:href="#5"/><use xlink:href="#6" y="2.171"/><use xlink:href="#7" y="4.342"/><use xlink:href="#8" y="6.513"/><text x="1.002" y="10.354" class="d">17</text><text x="4.008" y="10.354" class="d">39.7M</text><text x="12.024" y="10.354" class="d">17</text><text x="15.03" y="10.354" class="d">7214k</text><text x="24.048" y="10.354" class="d">0</text><text x="30.06" y="10.354" class="d">0</text><text x="33.066" y="10.354" class="d">4908k</text><text x="44.088" y="10.354" class="d">0</text><text x="47.094" y="10.354" class="d">0:00:08</text><text x="56.112" y="10.354" class="d">0:00:01</text><text x="65.13" y="10.354" class="d">0:00:07</text><text x="73.146" y="10.354" class="d">4908k</text></svg><svg x="8778"><use xlink:href="#a"/><use xlink:href="#b" x="42.996" y="8.659"/><use xlink:href="#5"/><use xlink:href="#6" y="2.171"/><use xlink:href="#7" y="4.342"/><use xlink:href="#8" y="6.513"/><text y="10.354" class="d">100</text><text x="4.008" y="10.354" class="d">39.7M</text><text x="11.022" y="10.354" class="d">100</text><text x="15.03" y="10.354" class="d">39.7M</text><text x="24.048" y="10.354" class="d">0</text><text x="30.06" y="10.354" class="d">0</text><text x="33.066" y="10.354" class="d">16.4M</text><text x="44.088" y="10.354" class="d">0</text><text x="47.094" y="10.354" class="d">0:00:08</text><text x="56.112" y="10.354" class="d">0:00:01</text><text x="65.13" y="10.354" class="d">0:00:07</text><text x="73.146" y="10.354" class="d">4908k</text></svg><svg x="8892"><use xlink:href="#a"/><use xlink:href="#b" x="-.004" y="10.83"/><use xlink:href="#5"/><use xlink:href="#6" y="2.171"/><use xlink:href="#7" y="4.342"/><use xlink:href="#8" y="6.513"/><use xlink:href="#9" y="8.684"/></svg><svg x="9006"><use xlink:href="#a"/><use xlink:href="#b" x="-.004" y="10.83"/><use xlink:href="#5"/><use xlink:href="#6" y="2.171"/><use xlink:href="#7" y="4.342"/><use xlink:href="#8" y="6.513"/><use xlink:href="#9" y="8.684"/></svg><svg x="9120"><use xlink:href="#a"/><use xlink:href="#b" x="-.004" y="10.83"/><use xlink:href="#5"/><use xlink:href="#6" y="2.171"/><use xlink:href="#7" y="4.342"/><use xlink:href="#8" y="6.513"/><use xlink:href="#9" y="8.684"/></svg><svg x="9234"><use xlink:href="#a"/><use xlink:href="#b" x="-.004" y="10.83"/><use xlink:href="#5"/><use xlink:href="#6" y="2.171"/><use xlink:href="#7" y="4.342"/><use xlink:href="#8" y="6.513"/><use xlink:href="#9" y="8.684"/></svg><svg x="9348"><use xlink:href="#a"/><use xlink:href="#b" x="1.996" y="10.83"/><use xlink:href="#5"/><use xlink:href="#6" y="2.171"/><use xlink:href="#7" y="4.342"/><use xlink:href="#8" y="6.513"/><use xlink:href="#9" y="8.684"/><use xlink:href="#1" y="10.855"/></svg><svg x="9462"><use xlink:href="#a"/><use xlink:href="#b" x="1.996" y="10.83"/><use xlink:href="#5"/><use xlink:href="#6" y="2.171"/><use xlink:href="#7" y="4.342"/><use xlink:href="#8" y="6.513"/><use xlink:href="#9" y="8.684"/><use xlink:href="#1" y="10.855"/></svg><svg x="9576"><use xlink:href="#a"/><use xlink:href="#b" x="2.996" y="10.83"/><use xlink:href="#5"/><use xlink:href="#6" y="2.171"/><use xlink:href="#7" y="4.342"/><use xlink:href="#8" y="6.513"/><use xlink:href="#9" y="8.684"/><use xlink:href="#2" y="10.855"/></svg><svg x="9690"><use xlink:href="#a"/><use xlink:href="#b" x="3.996" y="10.83"/><use xlink:href="#5"/><use xlink:href="#6" y="2.171"/><use xlink:href="#7" y="4.342"/><use xlink:href="#8" y="6.513"/><use xlink:href="#9" y="8.684"/><text y="12.525" class="c">$</text><text x="2.004" y="12.525" class="d">ch</text></svg><svg x="9804"><use xlink:href="#a"/><use xlink:href="#b" x="4.996" y="10.83"/><use xlink:href="#5"/><use xlink:href="#6" y="2.171"/><use xlink:href="#7" y="4.342"/><use xlink:href="#8" y="6.513"/><use xlink:href="#9" y="8.684"/><text y="12.525" class="c">$</text><text x="2.004" y="12.525" class="d">chm</text></svg><svg x="9918"><use xlink:href="#a"/><use xlink:href="#b" x="5.996" y="10.83"/><use xlink:href="#5"/><use xlink:href="#6" y="2.171"/><use xlink:href="#7" y="4.342"/><use xlink:href="#8" y="6.513"/><use xlink:href="#9" y="8.684"/><text y="12.525" class="c">$</text><text x="2.004" y="12.525" class="d">chmo</text></svg><svg x="10032"><use xlink:href="#a"/><use xlink:href="#b" x="6.996" y="10.83"/><use xlink:href="#5"/><use xlink:href="#6" y="2.171"/><use xlink:href="#7" y="4.342"/><use xlink:href="#8" y="6.513"/><use xlink:href="#9" y="8.684"/><use xlink:href="#10" y="10.855"/></svg><svg x="10146"><use xlink:href="#a"/><use xlink:href="#b" x="7.996" y="10.83"/><use xlink:href="#5"/><use xlink:href="#6" y="2.171"/><use xlink:href="#7" y="4.342"/><use xlink:href="#8" y="6.513"/><use xlink:href="#9" y="8.684"/><use xlink:href="#10" y="10.855"/></svg><svg x="10260"><use xlink:href="#a"/><use xlink:href="#b" x="8.996" y="10.83"/><use xlink:href="#5"/><use xlink:href="#6" y="2.171"/><use xlink:href="#7" y="4.342"/><use xlink:href="#8" y="6.513"/><use xlink:href="#9" y="8.684"/><text y="12.525" class="c">$</text><text x="2.004" y="12.525" class="d">chmod</text><text x="8.016" y="12.525" class="d">+</text></svg><svg x="10374"><use xlink:href="#a"/><use xlink:href="#b" x="9.996" y="10.83"/><use xlink:href="#5"/><use xlink:href="#6" y="2.171"/><use xlink:href="#7" y="4.342"/><use xlink:href="#8" y="6.513"/><use xlink:href="#9" y="8.684"/><use xlink:href="#11" y="10.855"/></svg><svg x="10488"><use xlink:href="#a"/><use xlink:href="#b" x="10.996" y="10.83"/><use xlink:href="#5"/><use xlink:href="#6" y="2.171"/><use xlink:href="#7" y="4.342"/><use xlink:href="#8" y="6.513"/><use xlink:href="#9" y="8.684"/><use xlink:href="#11" y="10.855"/></svg><svg x="10602"><use xlink:href="#a"/><use xlink:href="#b" x="11.996" y="10.83"/><use xlink:href="#5"/><use xlink:href="#6" y="2.171"/><use xlink:href="#7" y="4.342"/><use xlink:href="#8" y="6.513"/><use xlink:href="#9" y="8.684"/><text y="12.525" class="c">$</text><text x="2.004" y="12.525" class="d">chmod</text><text x="8.016" y="12.525" class="d">+x</text><text x="11.022" y="12.525" class="d">k</text></svg><svg x="10716"><use xlink:href="#a"/><use xlink:href="#b" x="12.996" y="10.83"/><use xlink:href="#5"/><use xlink:href="#6" y="2.171"/><use xlink:href="#7" y="4.342"/><use xlink:href="#8" y="6.513"/><use xlink:href="#9" y="8.684"/><use xlink:href="#12" y="10.855"/></svg><svg x="10830"><use xlink:href="#a"/><use xlink:href="#b" x="-.004" y="13.001"/><use xlink:href="#5"/><use xlink:href="#6" y="2.171"/><use xlink:href="#7" y="4.342"/><use xlink:href="#8" y="6.513"/><use xlink:href="#9" y="8.684"/><use xlink:href="#12" y="10.855"/></svg><svg x="10944"><use xlink:href="#a"/><use xlink:href="#b" x="-.004" y="13.001"/><use xlink:href="#5"/><use xlink:href="#6" y="2.171"/><use xlink:href="#7" y="4.342"/><use xlink:href="#8" y="6.513"/><use xlink:href="#9" y="8.684"/><use xlink:href="#12" y="10.855"/></svg><svg x="11058"><use xlink:href="#a"/><use xlink:href="#b" x="-.004" y="13.001"/><use xlink:href="#5"/><use xlink:href="#6" y="2.171"/><use xlink:href="#7" y="4.342"/><use xlink:href="#8" y="6.513"/><use xlink:href="#9" y="8.684"/><use xlink:href="#12" y="10.855"/></svg><svg x="11172"><use xlink:href="#a"/><use xlink:href="#b" x="-.004" y="13.001"/><use xlink:href="#5"/><use xlink:href="#6" y="2.171"/><use xlink:href="#7" y="4.342"/><use xlink:href="#8" y="6.513"/><use xlink:href="#9" y="8.684"/><use xlink:href="#12" y="10.855"/></svg><svg x="11286"><use xlink:href="#a"/><use xlink:href="#b" x="-.004" y="13.001"/><use xlink:href="#5"/><use xlink:href="#6" y="2.171"/><use xlink:href="#7" y="4.342"/><use xlink:href="#8" y="6.513"/><use xlink:href="#9" y="8.684"/><use xlink:href="#12" y="10.855"/></svg><svg x="11400"><use xlink:href="#a"/><use xlink:href="#b" x="1.996" y="13.001"/><use xlink:href="#5"/><use xlink:href="#6" y="2.171"/><use xlink:href="#7" y="4.342"/><use xlink:href="#8" y="6.513"/><use xlink:href="#9" y="8.684"/><use xlink:href="#12" y="10.855"/><use xlink:href="#1" y="13.026"/></svg><svg x="11514"><use xlink:href="#a"/><use xlink:href="#b" x="1.996" y="13.001"/><use xlink:href="#5"/><use xlink:href="#6" y="2.171"/><use xlink:href="#7" y="4.342"/><use xlink:href="#8" y="6.513"/><use xlink:href="#9" y="8.684"/><use xlink:href="#12" y="10.855"/><use xlink:href="#1" y="13.026"/></svg><svg x="11628"><use xlink:href="#a"/><use xlink:href="#b" x="2.996" y="13.001"/><use xlink:href="#5"/><use xlink:href="#6" y="2.171"/><use xlink:href="#7" y="4.342"/><use xlink:href="#8" y="6.513"/><use xlink:href="#9" y="8.684"/><use xlink:href="#12" y="10.855"/><text y="14.696" class="c">$</text><text x="2.004" y="14.696" class="d">.</text></svg><svg x="11742"><use xlink:href="#a"/><use xlink:href="#b" x="3.996" y="13.001"/><use xlink:href="#5"/><use xlink:href="#6" y="2.171"/><use xlink:href="#7" y="4.342"/><use xlink:href="#8" y="6.513"/><use xlink:href="#9" y="8.684"/><use xlink:href="#12" y="10.855"/><text y="14.696" class="c">$</text><text x="2.004" y="14.696" class="d">./</text></svg><svg x="11856"><use xlink:href="#a"/><use xlink:href="#b" x="4.996" y="13.001"/><use xlink:href="#5"/><use xlink:href="#6" y="2.171"/><use xlink:href="#7" y="4.342"/><use xlink:href="#8" y="6.513"/><use xlink:href="#9" y="8.684"/><use xlink:href="#12" y="10.855"/><text y="14.696" class="c">$</text><text x="2.004" y="14.696" class="d">./k</text></svg><svg x="11970"><use xlink:href="#a"/><use xlink:href="#b" x="5.996" y="13.001"/><use xlink:href="#5"/><use xlink:href="#6" y="2.171"/><use xlink:href="#7" y="4.342"/><use xlink:href="#8" y="6.513"/><use xlink:href="#9" y="8.684"/><use xlink:href="#12" y="10.855"/><use xlink:href="#13" y="13.026"/></svg><svg x="12084"><use xlink:href="#a"/><use xlink:href="#b" x="6.996" y="13.001"/><use xlink:href="#5"/><use xlink:href="#6" y="2.171"/><use xlink:href="#7" y="4.342"/><use xlink:href="#8" y="6.513"/><use xlink:href="#9" y="8.684"/><use xlink:href="#12" y="10.855"/><use xlink:href="#13" y="13.026"/></svg><svg x="12198"><use xlink:href="#a"/><use xlink:href="#b" x="7.996" y="13.001"/><use xlink:href="#5"/><use xlink:href="#6" y="2.171"/><use xlink:href="#7" y="4.342"/><use xlink:href="#8" y="6.513"/><use xlink:href="#9" y="8.684"/><use xlink:href="#12" y="10.855"/><text y="14.696" class="c">$</text><text x="2.004" y="14.696" class="d">./k6</text><text x="7.014" y="14.696" class="d">v</text></svg><svg x="12312"><use xlink:href="#a"/><use xlink:href="#b" x="8.996" y="13.001"/><use xlink:href="#5"/><use xlink:href="#6" y="2.171"/><use xlink:href="#7" y="4.342"/><use xlink:href="#8" y="6.513"/><use xlink:href="#9" y="8.684"/><use xlink:href="#12" y="10.855"/><text y="14.696" class="c">$</text><text x="2.004" y="14.696" class="d">./k6</text><text x="7.014" y="14.696" class="d">ve</text></svg><svg x="12426"><use xlink:href="#a"/><use xlink:href="#b" x="9.996" y="13.001"/><use xlink:href="#5"/><use xlink:href="#6" y="2.171"/><use xlink:href="#7" y="4.342"/><use xlink:href="#8" y="6.513"/><use xlink:href="#9" y="8.684"/><use xlink:href="#12" y="10.855"/><text y="14.696" class="c">$</text><text x="2.004" y="14.696" class="d">./k6</text><text x="7.014" y="14.696" class="d">ver</text></svg><svg x="12540"><use xlink:href="#a"/><use xlink:href="#b" x="10.996" y="13.001"/><use xlink:href="#5"/><use xlink:href="#6" y="2.171"/><use xlink:href="#7" y="4.342"/><use xlink:href="#8" y="6.513"/><use xlink:href="#9" y="8.684"/><use xlink:href="#12" y="10.855"/><text y="14.696" class="c">$</text><text x="2.004" y="14.696" class="d">./k6</text><text x="7.014" y="14.696" class="d">vers</text></svg><svg x="12654"><use xlink:href="#a"/><use xlink:href="#b" x="11.996" y="13.001"/><use xlink:href="#5"/><use xlink:href="#6" y="2.171"/><use xlink:href="#7" y="4.342"/><use xlink:href="#8" y="6.513"/><use xlink:href="#9" y="8.684"/><use xlink:href="#12" y="10.855"/><text y="14.696" class="c">$</text><text x="2.004" y="14.696" class="d">./k6</text><text x="7.014" y="14.696" class="d">versi</text></svg><svg x="12768"><use xlink:href="#a"/><use xlink:href="#b" x="12.996" y="13.001"/><use xlink:href="#5"/><use xlink:href="#6" y="2.171"/><use xlink:href="#7" y="4.342"/><use xlink:href="#8" y="6.513"/><use xlink:href="#9" y="8.684"/><use xlink:href="#12" y="10.855"/><text y="14.696" class="c">$</text><text x="2.004" y="14.696" class="d">./k6</text><text x="7.014" y="14.696" class="d">versio</text></svg><svg x="12882"><use xlink:href="#a"/><use xlink:href="#b" x="13.996" y="13.001"/><use xlink:href="#5"/><use xlink:href="#6" y="2.171"/><use xlink:href="#7" y="4.342"/><use xlink:href="#8" y="6.513"/><use xlink:href="#9" y="8.684"/><use xlink:href="#12" y="10.855"/><use xlink:href="#14" y="13.026"/></svg><svg x="12996"><use xlink:href="#a"/><use xlink:href="#b" x="13.996" y="13.001"/><use xlink:href="#5"/><use xlink:href="#6" y="2.171"/><use xlink:href="#7" y="4.342"/><use xlink:href="#8" y="6.513"/><use xlink:href="#9" y="8.684"/><use xlink:href="#12" y="10.855"/><use xlink:href="#14" y="13.026"/></svg><svg x="13110"><use xlink:href="#a"/><use xlink:href="#b" x="-.004" y="15.172"/><use xlink:href="#5"/><use xlink:href="#6" y="2.171"/><use xlink:href="#7" y="4.342"/><use xlink:href="#8" y="6.513"/><use xlink:href="#9" y="8.684"/><use xlink:href="#12" y="10.855"/><use xlink:href="#14" y="13.026"/></svg><svg x="13224"><use xlink:href="#a"/><use xlink:href="#b" x="-.004" y="15.172"/><use xlink:href="#5"/><use xlink:href="#6" y="2.171"/><use xlink:href="#7" y="4.342"/><use xlink:href="#8" y="6.513"/><use xlink:href="#9" y="8.684"/><use xlink:href="#12" y="10.855"/><use xlink:href="#14" y="13.026"/></svg><svg x="13338"><use xlink:href="#a"/><use xlink:href="#b" x="-.004" y="26.027"/><use xlink:href="#5"/><use xlink:href="#6" y="2.171"/><use xlink:href="#7" y="4.342"/><use xlink:href="#8" y="6.513"/><use xlink:href="#9" y="8.684"/><use xlink:href="#12" y="10.855"/><use xlink:href="#14" y="13.026"/><use xlink:href="#15" y="15.197"/><use xlink:href="#16" y="17.368"/><use xlink:href="#17" y="19.539"/><use xlink:href="#18" y="21.71"/><use xlink:href="#19" y="23.881"/></svg><svg x="13452"><use xlink:href="#a"/><use xlink:href="#b" x="-.004" y="26.027"/><use xlink:href="#5"/><use xlink:href="#6" y="2.171"/><use xlink:href="#7" y="4.342"/><use xlink:href="#8" y="6.513"/><use xlink:href="#9" y="8.684"/><use xlink:href="#12" y="10.855"/><use xlink:href="#14" y="13.026"/><use xlink:href="#15" y="15.197"/><use xlink:href="#16" y="17.368"/><use xlink:href="#17" y="19.539"/><use xlink:href="#18" y="21.71"/><use xlink:href="#19" y="23.881"/></svg><svg x="13566"><use xlink:href="#a"/><use xlink:href="#b" x="-.004" y="26.027"/><use xlink:href="#5"/><use xlink:href="#6" y="2.171"/><use xlink:href="#7" y="4.342"/><use xlink:href="#8" y="6.513"/><use xlink:href="#9" y="8.684"/><use xlink:href="#12" y="10.855"/><use xlink:href="#14" y="13.026"/><use xlink:href="#15" y="15.197"/><use xlink:href="#16" y="17.368"/><use xlink:href="#17" y="19.539"/><use xlink:href="#18" y="21.71"/><use xlink:href="#19" y="23.881"/></svg><svg x="13680"><use xlink:href="#a"/><use xlink:href="#b" x="-.004" y="26.027"/><use xlink:href="#5"/><use xlink:href="#6" y="2.171"/><use xlink:href="#7" y="4.342"/><use xlink:href="#8" y="6.513"/><use xlink:href="#9" y="8.684"/><use xlink:href="#12" y="10.855"/><use xlink:href="#14" y="13.026"/><use xlink:href="#15" y="15.197"/><use xlink:href="#16" y="17.368"/><use xlink:href="#17" y="19.539"/><use xlink:href="#18" y="21.71"/><use xlink:href="#19" y="23.881"/></svg><svg x="13794"><use xlink:href="#a"/><use xlink:href="#b" x="1.996" y="26.027"/><use xlink:href="#5"/><use xlink:href="#6" y="2.171"/><use xlink:href="#7" y="4.342"/><use xlink:href="#8" y="6.513"/><use xlink:href="#9" y="8.684"/><use xlink:href="#12" y="10.855"/><use xlink:href="#14" y="13.026"/><use xlink:href="#15" y="15.197"/><use xlink:href="#16" y="17.368"/><use xlink:href="#17" y="19.539"/><use xlink:href="#18" y="21.71"/><use xlink:href="#19" y="23.881"/><use xlink:href="#1" y="26.052"/></svg><svg x="13908"><use xlink:href="#a"/><use xlink:href="#b" x="1.996" y="26.027"/><use xlink:href="#5"/><use xlink:href="#6" y="2.171"/><use xlink:href="#7" y="4.342"/><use xlink:href="#8" y="6.513"/><use xlink:href="#9" y="8.684"/><use xlink:href="#12" y="10.855"/><use xlink:href="#14" y="13.026"/><use xlink:href="#15" y="15.197"/><use xlink:href="#16" y="17.368"/><use xlink:href="#17" y="19.539"/><use xlink:href="#18" y="21.71"/><use xlink:href="#19" y="23.881"/><use xlink:href="#1" y="26.052"/></svg><svg x="14022"><use xlink:href="#a"/><use xlink:href="#b" x="1.996" y="26.027"/><use xlink:href="#5"/><use xlink:href="#6" y="2.171"/><use xlink:href="#7" y="4.342"/><use xlink:href="#8" y="6.513"/><use xlink:href="#9" y="8.684"/><use xlink:href="#12" y="10.855"/><use xlink:href="#14" y="13.026"/><use xlink:href="#15" y="15.197"/><use xlink:href="#16" y="17.368"/><use xlink:href="#17" y="19.539"/><use xlink:href="#18" y="21.71"/><use xlink:href="#19" y="23.881"/><use xlink:href="#1" y="26.052"/></svg><svg x="14136"><use xlink:href="#a"/><use xlink:href="#b" x="-.004" y="28.198"/><use xlink:href="#5"/><use xlink:href="#6" y="2.171"/><use xlink:href="#7" y="4.342"/><use xlink:href="#8" y="6.513"/><use xlink:href="#9" y="8.684"/><use xlink:href="#12" y="10.855"/><use xlink:href="#14" y="13.026"/><use xlink:href="#15" y="15.197"/><use xlink:href="#16" y="17.368"/><use xlink:href="#17" y="19.539"/><use xlink:href="#18" y="21.71"/><use xlink:href="#19" y="23.881"/><use xlink:href="#1" y="26.052"/></svg></svg></g></g></svg></svg>