<svg xmlns="http://www.w3.org/2000/svg" xmlns:xlink="http://www.w3.org/1999/xlink" width="960" height="521.04"><rect width="960" height="521.04" rx="0" ry="0" class="a"/><svg height="521.04" viewBox="0 0 96 52.104" width="960" xmlns="http://www.w3.org/2000/svg" xmlns:xlink="http://www.w3.org/1999/xlink"><style>@keyframes i{0%{transform:translateX(0)}1%{transform:translateX(-384px)}2%{transform:translateX(-480px)}2.6%{transform:translateX(-576px)}3%{transform:translateX(-672px)}3.4%{transform:translateX(-768px)}4.6%{transform:translateX(-864px)}5%{transform:translateX(-960px)}6.7%{transform:translateX(-1056px)}7.8%{transform:translateX(-1152px)}8.9%{transform:translateX(-1248px)}10.5%{transform:translateX(-1344px)}12%{transform:translateX(-1440px)}12.4%{transform:translateX(-1536px)}12.8%{transform:translateX(-1632px)}13.9%{transform:translateX(-1728px)}14.3%{transform:translateX(-1824px)}14.7%{transform:translateX(-1920px)}16.4%{transform:translateX(-2208px)}16.9%{transform:translateX(-2400px)}18.4%{transform:translateX(-2496px)}19.8%{transform:translateX(-2592px)}21.3%{transform:translateX(-2688px)}22.8%{transform:translateX(-2784px)}24.2%{transform:translateX(-2880px)}25.7%{transform:translateX(-2976px)}27.1%{transform:translateX(-3072px)}28.6%{transform:translateX(-3168px)}30%{transform:translateX(-3264px)}31.5%{transform:translateX(-3360px)}33%{transform:translateX(-3456px)}34.4%{transform:translateX(-3552px)}35.6%{transform:translateX(-3648px)}35.7%{transform:translateX(-3744px)}37.5%{transform:translateX(-3840px)}38.2%{transform:translateX(-3936px)}38.9%{transform:translateX(-4032px)}39.7%{transform:translateX(-4128px)}40.4%{transform:translateX(-4224px)}40.6%{transform:translateX(-4320px)}40.7%{transform:translateX(-4800px)}55.3%{transform:translateX(-4896px)}55.6%{transform:translateX(-4992px)}56%{transform:translateX(-5088px)}59.6%{transform:translateX(-5184px)}60.9%{transform:translateX(-5280px)}62%{transform:translateX(-5376px)}62.8%{transform:translateX(-5472px)}64.4%{transform:translateX(-5568px)}64.8%{transform:translateX(-5664px)}68.4%{transform:translateX(-5760px)}69.5%{transform:translateX(-5856px)}71.1%{transform:translateX(-5952px)}72.3%{transform:translateX(-6048px)}73.3%{transform:translateX(-6144px)}75.5%{transform:translateX(-6240px)}75.9%{transform:translateX(-6336px)}76.5%{transform:translateX(-6432px)}80.2%{transform:translateX(-6624px)}80.5%{transform:translateX(-6816px)}80.6%{transform:translateX(-7008px)}82.3%{transform:translateX(-7104px)}83.1%{transform:translateX(-7200px)}83.8%{transform:translateX(-7296px)}84.5%{transform:translateX(-7392px)}85.2%{transform:translateX(-7488px)}85.4%{transform:translateX(-7968px)}to{transform:translateX(-8064px)}}.a{fill:#282d35}.c,.d,.e,.f{fill:#a8cc8c;white-space:pre}.d,.e,.f{fill:#b9c0cb}.e,.f{fill:#d290e4}.f{fill:#66c2cd}</style><g font-family="Monaco,Consolas,Menlo,'Bitstream Vera Sans Mono','Powerline Symbols',monospace" font-size="1.67"><defs><symbol id="1"><text y="1.67" class="c">$</text></symbol><symbol id="2"><text y="1.67" class="c">$</text><text x="2.004" y="1.67" class="d">k</text></symbol><symbol id="3"><text y="1.67" class="c">$</text><text x="2.004" y="1.67" class="d">k6</text></symbol><symbol id="4"><text y="1.67" class="c">$</text><text x="2.004" y="1.67" class="d">k6x</text></symbol><symbol id="5"><text y="1.67" class="c">$</text><text x="2.004" y="1.67" class="d">k6x</text><text x="6.012" y="1.67" class="d">r</text></symbol><symbol id="6"><text y="1.67" class="c">$</text><text x="2.004" y="1.67" class="d">k6x</text><text x="6.012" y="1.67" class="d">ru</text></symbol><symbol id="7"><text y="1.67" class="c">$</text><text x="2.004" y="1.67" class="d">k6x</text><text x="6.012" y="1.67" class="d">run</text></symbol><symbol id="8"><text y="1.67" class="c">$</text><text x="2.004" y="1.67" class="d">k6x</text><text x="6.012" y="1.67" class="d">run</text><text x="10.02" y="1.67" class="d">s</text></symbol><symbol id="9"><text y="1.67" class="c">$</text><text x="2.004" y="1.67" class="d">k6x</text><text x="6.012" y="1.67" class="d">run</text><text x="10.02" y="1.67" class="d">sc</text></symbol><symbol id="10"><text y="1.67" class="c">$</text><text x="2.004" y="1.67" class="d">k6x</text><text x="6.012" y="1.67" class="d">run</text><text x="10.02" y="1.67" class="d">scr</text></symbol><symbol id="11"><text y="1.67" class="c">$</text><text x="2.004" y="1.67" class="d">k6x</text><text x="6.012" y="1.67" class="d">run</text><text x="10.02" y="1.67" class="d">scri</text></symbol><symbol id="12"><text y="1.67" class="c">$</text><text x="2.004" y="1.67" class="d">k6x</text><text x="6.012" y="1.67" class="d">run</text><text x="10.02" y="1.67" class="d">scrip</text></symbol><symbol id="13"><text y="1.67" class="c">$</text><text x="2.004" y="1.67" class="d">k6x</text><text x="6.012" y="1.67" class="d">run</text><text x="10.02" y="1.67" class="d">script</text></symbol><symbol id="14"><text y="1.67" class="c">$</text><text x="2.004" y="1.67" class="d">k6x</text><text x="6.012" y="1.67" class="d">run</text><text x="10.02" y="1.67" class="d">script.</text></symbol><symbol id="15"><text y="1.67" class="c">$</text><text x="2.004" y="1.67" class="d">k6x</text><text x="6.012" y="1.67" class="d">run</text><text x="10.02" y="1.67" class="d">script.j</text></symbol><symbol id="16"><text y="1.67" class="c">$</text><text x="2.004" y="1.67" class="d">k6x</text><text x="6.012" y="1.67" class="d">run</text><text x="10.02" y="1.67" class="d">script.js</text></symbol><symbol id="17"><text y="1.67" class="d">k6x</text><text x="4.008" y="1.67" class="e">[=</text><text x="9.018" y="1.67" class="e">]</text><text x="11.022" y="1.67" class="d">search</text><text x="18.036" y="1.67" class="d">for</text><text x="22.044" y="1.67" class="d">dependencies</text></symbol><symbol id="18"><text x="10.02" y="1.67" class="f">/\</text><text x="18.036" y="1.67" class="f">|‾‾|</text><text x="23.046" y="1.67" class="f">/‾‾/</text><text x="30.06" y="1.67" class="f">/‾‾/</text></symbol><symbol id="19"><text x="5.01" y="1.67" class="f">/\</text><text x="9.018" y="1.67" class="f">/</text><text x="12.024" y="1.67" class="f">\</text><text x="18.036" y="1.67" class="f">|</text><text x="21.042" y="1.67" class="f">|/</text><text x="25.05" y="1.67" class="f">/</text><text x="29.058" y="1.67" class="f">/</text><text x="32.064" y="1.67" class="f">/</text></symbol><symbol id="20"><text x="4.008" y="1.67" class="f">/</text><text x="7.014" y="1.67" class="f">\/</text><text x="13.026" y="1.67" class="f">\</text><text x="18.036" y="1.67" class="f">|</text><text x="24.048" y="1.67" class="f">(</text><text x="28.056" y="1.67" class="f">/</text><text x="32.064" y="1.67" class="f">‾‾\</text></symbol><symbol id="21"><text x="3.006" y="1.67" class="f">/</text><text x="14.028" y="1.67" class="f">\</text><text x="18.036" y="1.67" class="f">|</text><text x="21.042" y="1.67" class="f">|\</text><text x="25.05" y="1.67" class="f">\</text><text x="27.054" y="1.67" class="f">|</text><text x="30.06" y="1.67" class="f">(‾)</text><text x="35.07" y="1.67" class="f">|</text></symbol><symbol id="22"><text x="2.004" y="1.67" class="f">/</text><text x="4.008" y="1.67" class="f">__________</text><text x="15.03" y="1.67" class="f">\</text><text x="18.036" y="1.67" class="f">|__|</text><text x="23.046" y="1.67" class="f">\__\</text><text x="28.056" y="1.67" class="f">\_____/</text><text x="36.072" y="1.67" class="f">.io</text></symbol><symbol id="23"><text x="2.004" y="1.67" class="d">execution:</text><text x="13.026" y="1.67" class="f">local</text></symbol><symbol id="24"><text x="5.01" y="1.67" class="d">script:</text><text x="13.026" y="1.67" class="f">script.js</text></symbol><symbol id="25"><text x="5.01" y="1.67" class="d">output:</text><text x="13.026" y="1.67" class="f">-</text></symbol><symbol id="26"><text x="2.004" y="1.67" class="d">scenarios:</text><text x="13.026" y="1.67" class="f">(100.00%)</text><text x="23.046" y="1.67" class="f">1</text><text x="25.05" y="1.67" class="f">scenario,</text><text x="35.07" y="1.67" class="f">1</text><text x="37.074" y="1.67" class="f">max</text><text x="41.082" y="1.67" class="f">VUs,</text><text x="46.092" y="1.67" class="f">10m30s</text><text x="53.106" y="1.67" class="f">max</text><text x="57.114" y="1.67" class="f">duration</text><text x="66.132" y="1.67" class="f">(incl.</text><text x="73.146" y="1.67" class="f">graceful</text><text x="82.164" y="1.67" class="f">stop):</text></symbol><symbol id="27"><text x="11.022" y="1.67" class="d">*</text><text x="13.026" y="1.67" class="d">default:</text><text x="22.044" y="1.67" class="d">1</text><text x="24.048" y="1.67" class="d">iterations</text><text x="35.07" y="1.67" class="d">for</text><text x="39.078" y="1.67" class="d">each</text><text x="44.088" y="1.67" class="d">of</text><text x="47.094" y="1.67" class="d">1</text><text x="49.098" y="1.67" class="d">VUs</text><text x="53.106" y="1.67" class="d">(maxDuration:</text><text x="67.134" y="1.67" class="d">10m0s,</text><text x="74.148" y="1.67" class="d">gracefulStop:</text><text x="88.176" y="1.67" class="d">30s)</text></symbol><symbol id="28"><text y="1.67" class="d">running</text><text x="8.016" y="1.67" class="d">(00m00.1s),</text><text x="20.04" y="1.67" class="d">1/1</text><text x="24.048" y="1.67" class="d">VUs,</text><text x="29.058" y="1.67" class="d">0</text><text x="31.062" y="1.67" class="d">complete</text><text x="40.08" y="1.67" class="d">and</text><text x="44.088" y="1.67" class="d">0</text><text x="46.092" y="1.67" class="d">interrupted</text><text x="58.116" y="1.67" class="d">iterations</text></symbol><symbol id="29"><text y="1.67" class="d">default</text><text x="10.02" y="1.67" class="d">[--------------------------------------]</text><text x="51.102" y="1.67" class="d">1</text><text x="53.106" y="1.67" class="d">VUs</text><text x="58.116" y="1.67" class="d">00m00.1s/10m0s</text><text x="74.148" y="1.67" class="d">0/1</text><text x="78.156" y="1.67" class="d">iters,</text><text x="85.17" y="1.67" class="d">1</text><text x="87.174" y="1.67" class="d">per</text><text x="91.182" y="1.67" class="d">VU</text></symbol><symbol id="30"><text y="1.67" class="d">running</text><text x="8.016" y="1.67" class="d">(00m00.2s),</text><text x="20.04" y="1.67" class="d">1/1</text><text x="24.048" y="1.67" class="d">VUs,</text><text x="29.058" y="1.67" class="d">0</text><text x="31.062" y="1.67" class="d">complete</text><text x="40.08" y="1.67" class="d">and</text><text x="44.088" y="1.67" class="d">0</text><text x="46.092" y="1.67" class="d">interrupted</text><text x="58.116" y="1.67" class="d">iterations</text></symbol><symbol id="31"><text y="1.67" class="d">default</text><text x="10.02" y="1.67" class="d">[--------------------------------------]</text><text x="51.102" y="1.67" class="d">1</text><text x="53.106" y="1.67" class="d">VUs</text><text x="58.116" y="1.67" class="d">00m00.2s/10m0s</text><text x="74.148" y="1.67" class="d">0/1</text><text x="78.156" y="1.67" class="d">iters,</text><text x="85.17" y="1.67" class="d">1</text><text x="87.174" y="1.67" class="d">per</text><text x="91.182" y="1.67" class="d">VU</text></symbol><symbol id="32"><text y="1.67" class="d">running</text><text x="8.016" y="1.67" class="d">(00m00.3s),</text><text x="20.04" y="1.67" class="d">1/1</text><text x="24.048" y="1.67" class="d">VUs,</text><text x="29.058" y="1.67" class="d">0</text><text x="31.062" y="1.67" class="d">complete</text><text x="40.08" y="1.67" class="d">and</text><text x="44.088" y="1.67" class="d">0</text><text x="46.092" y="1.67" class="d">interrupted</text><text x="58.116" y="1.67" class="d">iterations</text></symbol><symbol id="33"><text y="1.67" class="d">default</text><text x="10.02" y="1.67" class="d">[--------------------------------------]</text><text x="51.102" y="1.67" class="d">1</text><text x="53.106" y="1.67" class="d">VUs</text><text x="58.116" y="1.67" class="d">00m00.3s/10m0s</text><text x="74.148" y="1.67" class="d">0/1</text><text x="78.156" y="1.67" class="d">iters,</text><text x="85.17" y="1.67" class="d">1</text><text x="87.174" y="1.67" class="d">per</text><text x="91.182" y="1.67" class="d">VU</text></symbol><symbol id="34"><text y="1.67" class="d">running</text><text x="8.016" y="1.67" class="d">(00m00.4s),</text><text x="20.04" y="1.67" class="d">1/1</text><text x="24.048" y="1.67" class="d">VUs,</text><text x="29.058" y="1.67" class="d">0</text><text x="31.062" y="1.67" class="d">complete</text><text x="40.08" y="1.67" class="d">and</text><text x="44.088" y="1.67" class="d">0</text><text x="46.092" y="1.67" class="d">interrupted</text><text x="58.116" y="1.67" class="d">iterations</text></symbol><symbol id="35"><text y="1.67" class="d">default</text><text x="10.02" y="1.67" class="d">[--------------------------------------]</text><text x="51.102" y="1.67" class="d">1</text><text x="53.106" y="1.67" class="d">VUs</text><text x="58.116" y="1.67" class="d">00m00.4s/10m0s</text><text x="74.148" y="1.67" class="d">0/1</text><text x="78.156" y="1.67" class="d">iters,</text><text x="85.17" y="1.67" class="d">1</text><text x="87.174" y="1.67" class="d">per</text><text x="91.182" y="1.67" class="d">VU</text></symbol><symbol id="36"><text y="1.67" class="d">running</text><text x="8.016" y="1.67" class="d">(00m00.4s),</text><text x="20.04" y="1.67" class="d">0/1</text><text x="24.048" y="1.67" class="d">VUs,</text><text x="29.058" y="1.67" class="d">1</text><text x="31.062" y="1.67" class="d">complete</text><text x="40.08" y="1.67" class="d">and</text><text x="44.088" y="1.67" class="d">0</text><text x="46.092" y="1.67" class="d">interrupted</text><text x="58.116" y="1.67" class="d">iterations</text></symbol><symbol id="37"><text y="1.67" class="d">default</text><text x="8.016" y="1.67" class="c">✓</text><text x="10.02" y="1.67" class="d">[======================================]</text><text x="51.102" y="1.67" class="d">1</text><text x="53.106" y="1.67" class="d">VUs</text><text x="58.116" y="1.67" class="d">00m00.4s/10m0s</text><text x="74.148" y="1.67" class="d">1/1</text><text x="78.156" y="1.67" class="d">iters,</text><text x="85.17" y="1.67" class="d">1</text><text x="87.174" y="1.67" class="d">per</text><text x="91.182" y="1.67" class="d">VU</text></symbol><symbol id="a"><path fill="transparent" d="M0 0h96v25H0z"/></symbol><symbol id="b"><path fill="#6f7683" d="M0 0h1.102v2.171H0z"/></symbol></defs><path class="a" d="M0 0h96v52.104H0z"/><g style="animation-duration:13.745462s;animation-iteration-count:infinite;animation-name:i;animation-timing-function:steps(1,end)"><svg width="8160"><svg><use xlink:href="#a"/><use xlink:href="#b" x="-.004"/></svg><svg x="96"><use xlink:href="#a"/><use xlink:href="#b" x="-.004"/></svg><svg x="192"><use xlink:href="#a"/><use xlink:href="#b" x="-.004"/></svg><svg x="288"><use xlink:href="#a"/><use xlink:href="#b" x="1.996"/><use xlink:href="#1"/></svg><svg x="384"><use xlink:href="#a"/><use xlink:href="#b" x="2.996"/><use xlink:href="#2"/></svg><svg x="480"><use xlink:href="#a"/><use xlink:href="#b" x="3.996"/><use xlink:href="#3"/></svg><svg x="576"><use xlink:href="#a"/><use xlink:href="#b" x="4.996"/><use xlink:href="#4"/></svg><svg x="672"><use xlink:href="#a"/><use xlink:href="#b" x="5.996"/><use xlink:href="#4"/></svg><svg x="768"><use xlink:href="#a"/><use xlink:href="#b" x="6.996"/><use xlink:href="#5"/></svg><svg x="864"><use xlink:href="#a"/><use xlink:href="#b" x="7.996"/><use xlink:href="#6"/></svg><svg x="960"><use xlink:href="#a"/><use xlink:href="#b" x="8.996"/><use xlink:href="#7"/></svg><svg x="1056"><use xlink:href="#a"/><use xlink:href="#b" x="9.996"/><use xlink:href="#7"/></svg><svg x="1152"><use xlink:href="#a"/><use xlink:href="#b" x="10.996"/><use xlink:href="#8"/></svg><svg x="1248"><use xlink:href="#a"/><use xlink:href="#b" x="11.996"/><use xlink:href="#9"/></svg><svg x="1344"><use xlink:href="#a"/><use xlink:href="#b" x="12.996"/><use xlink:href="#10"/></svg><svg x="1440"><use xlink:href="#a"/><use xlink:href="#b" x="13.996"/><use xlink:href="#11"/></svg><svg x="1536"><use xlink:href="#a"/><use xlink:href="#b" x="14.996"/><use xlink:href="#12"/></svg><svg x="1632"><use xlink:href="#a"/><use xlink:href="#b" x="15.996"/><use xlink:href="#13"/></svg><svg x="1728"><use xlink:href="#a"/><use xlink:href="#b" x="16.996"/><use xlink:href="#14"/></svg><svg x="1824"><use xlink:href="#a"/><use xlink:href="#b" x="17.996"/><use xlink:href="#15"/></svg><svg x="1920"><use xlink:href="#a"/><use xlink:href="#b" x="18.996"/><use xlink:href="#16"/></svg><svg x="2016"><use xlink:href="#a"/><use xlink:href="#b" x="18.996"/><use xlink:href="#16"/></svg><svg x="2112"><use xlink:href="#a"/><use xlink:href="#b" x="-.004" y="2.146"/><use xlink:href="#16"/></svg><svg x="2208"><use xlink:href="#a"/><use xlink:href="#b" x="-.004" y="2.146"/><use xlink:href="#16"/></svg><svg x="2304"><use xlink:href="#a"/><use xlink:href="#16"/></svg><svg x="2400"><use xlink:href="#a"/><use xlink:href="#16"/><use xlink:href="#17" y="2.171"/></svg><svg x="2496"><use xlink:href="#a"/><use xlink:href="#16"/><text y="3.841" class="d">k6x</text><text x="4.008" y="3.841" class="e">[==</text><text x="9.018" y="3.841" class="e">]</text><text x="11.022" y="3.841" class="d">resolving</text><text x="21.042" y="3.841" class="d">dependencies</text></svg><svg x="2592"><use xlink:href="#a"/><use xlink:href="#16"/><text y="3.841" class="d">k6x</text><text x="4.008" y="3.841" class="e">[===</text><text x="9.018" y="3.841" class="e">]</text><text x="11.022" y="3.841" class="d">resolving</text><text x="21.042" y="3.841" class="d">dependencies</text></svg><svg x="2688"><use xlink:href="#a"/><use xlink:href="#16"/><text y="3.841" class="d">k6x</text><text x="4.008" y="3.841" class="e">[====]</text><text x="11.022" y="3.841" class="d">resolving</text><text x="21.042" y="3.841" class="d">dependencies</text></svg><svg x="2784"><use xlink:href="#a"/><use xlink:href="#16"/><text y="3.841" class="d">k6x</text><text x="4.008" y="3.841" class="e">[</text><text x="6.012" y="3.841" class="e">===]</text><text x="11.022" y="3.841" class="d">resolving</text><text x="21.042" y="3.841" class="d">dependencies</text></svg><svg x="2880"><use xlink:href="#a"/><use xlink:href="#16"/><text y="3.841" class="d">k6x</text><text x="4.008" y="3.841" class="e">[</text><text x="7.014" y="3.841" class="e">==]</text><text x="11.022" y="3.841" class="d">resolving</text><text x="21.042" y="3.841" class="d">dependencies</text></svg><svg x="2976"><use xlink:href="#a"/><use xlink:href="#16"/><text y="3.841" class="d">k6x</text><text x="4.008" y="3.841" class="e">[</text><text x="8.016" y="3.841" class="e">=]</text><text x="11.022" y="3.841" class="d">resolving</text><text x="21.042" y="3.841" class="d">dependencies</text></svg><svg x="3072"><use xlink:href="#a"/><use xlink:href="#16"/><text y="3.841" class="d">k6x</text><text x="4.008" y="3.841" class="e">[</text><text x="9.018" y="3.841" class="e">]</text><text x="11.022" y="3.841" class="d">installing</text><text x="22.044" y="3.841" class="d">k6</text><text x="25.05" y="3.841" class="d">(builder:</text><text x="35.07" y="3.841" class="d">service,</text><text x="44.088" y="3.841" class="d">target:</text><text x="52.104" y="3.841" class="d">/home/iszkiba/.cache/k6x/bin)</text></svg><svg x="3168"><use xlink:href="#a"/><use xlink:href="#16"/><text y="3.841" class="d">k6x</text><text x="4.008" y="3.841" class="e">[=</text><text x="9.018" y="3.841" class="e">]</text><text x="11.022" y="3.841" class="d">installing</text><text x="22.044" y="3.841" class="d">k6</text><text x="25.05" y="3.841" class="d">(builder:</text><text x="35.07" y="3.841" class="d">service,</text><text x="44.088" y="3.841" class="d">target:</text><text x="52.104" y="3.841" class="d">/home/iszkiba/.cache/k6x/bin)</text></svg><svg x="3264"><use xlink:href="#a"/><use xlink:href="#16"/><text y="3.841" class="d">k6x</text><text x="4.008" y="3.841" class="e">[==</text><text x="9.018" y="3.841" class="e">]</text><text x="11.022" y="3.841" class="d">installing</text><text x="22.044" y="3.841" class="d">k6</text><text x="25.05" y="3.841" class="d">(builder:</text><text x="35.07" y="3.841" class="d">service,</text><text x="44.088" y="3.841" class="d">target:</text><text x="52.104" y="3.841" class="d">/home/iszkiba/.cache/k6x/bin)</text></svg><svg x="3360"><use xlink:href="#a"/><use xlink:href="#16"/><text y="3.841" class="d">k6x</text><text x="4.008" y="3.841" class="e">[===</text><text x="9.018" y="3.841" class="e">]</text><text x="11.022" y="3.841" class="d">installing</text><text x="22.044" y="3.841" class="d">k6</text><text x="25.05" y="3.841" class="d">(builder:</text><text x="35.07" y="3.841" class="d">service,</text><text x="44.088" y="3.841" class="d">target:</text><text x="52.104" y="3.841" class="d">/home/iszkiba/.cache/k6x/bin)</text></svg><svg x="3456"><use xlink:href="#a"/><use xlink:href="#16"/><text y="3.841" class="d">k6x</text><text x="4.008" y="3.841" class="e">[====]</text><text x="11.022" y="3.841" class="d">installing</text><text x="22.044" y="3.841" class="d">k6</text><text x="25.05" y="3.841" class="d">(builder:</text><text x="35.07" y="3.841" class="d">service,</text><text x="44.088" y="3.841" class="d">target:</text><text x="52.104" y="3.841" class="d">/home/iszkiba/.cache/k6x/bin)</text></svg><svg x="3552"><use xlink:href="#a"/><use xlink:href="#16"/><text y="3.841" class="d">k6x</text><text x="4.008" y="3.841" class="e">[</text><text x="6.012" y="3.841" class="e">===]</text><text x="11.022" y="3.841" class="d">installing</text><text x="22.044" y="3.841" class="d">k6</text><text x="25.05" y="3.841" class="d">(builder:</text><text x="35.07" y="3.841" class="d">service,</text><text x="44.088" y="3.841" class="d">target:</text><text x="52.104" y="3.841" class="d">/home/iszkiba/.cache/k6x/bin)</text></svg><svg x="3648"><use xlink:href="#a"/><use xlink:href="#b" x="-.004" y="2.146"/><use xlink:href="#16"/></svg><svg x="3744"><use xlink:href="#a"/><use xlink:href="#b" x="-.004" y="17.343"/><use xlink:href="#16"/><use xlink:href="#18" y="4.342"/><use xlink:href="#19" y="6.513"/><use xlink:href="#20" y="8.684"/><use xlink:href="#21" y="10.855"/><use xlink:href="#22" y="13.026"/></svg><svg x="3840"><use xlink:href="#a"/><use xlink:href="#b" x="-.004" y="32.54"/><use xlink:href="#16"/><use xlink:href="#18" y="4.342"/><use xlink:href="#19" y="6.513"/><use xlink:href="#20" y="8.684"/><use xlink:href="#21" y="10.855"/><use xlink:href="#22" y="13.026"/><use xlink:href="#23" y="17.368"/><use xlink:href="#24" y="19.539"/><use xlink:href="#25" y="21.71"/><use xlink:href="#26" y="26.052"/><use xlink:href="#27" y="28.223"/></svg><svg x="3936"><use xlink:href="#a"/><use xlink:href="#b" x="-.004" y="32.54"/><use xlink:href="#16"/><use xlink:href="#18" y="4.342"/><use xlink:href="#19" y="6.513"/><use xlink:href="#20" y="8.684"/><use xlink:href="#21" y="10.855"/><use xlink:href="#22" y="13.026"/><use xlink:href="#23" y="17.368"/><use xlink:href="#24" y="19.539"/><use xlink:href="#25" y="21.71"/><use xlink:href="#26" y="26.052"/><use xlink:href="#27" y="28.223"/><use xlink:href="#28" y="34.736"/><use xlink:href="#29" y="36.907"/></svg><svg x="4032"><use xlink:href="#a"/><use xlink:href="#b" x="-.004" y="32.54"/><use xlink:href="#16"/><use xlink:href="#18" y="4.342"/><use xlink:href="#19" y="6.513"/><use xlink:href="#20" y="8.684"/><use xlink:href="#21" y="10.855"/><use xlink:href="#22" y="13.026"/><use xlink:href="#23" y="17.368"/><use xlink:href="#24" y="19.539"/><use xlink:href="#25" y="21.71"/><use xlink:href="#26" y="26.052"/><use xlink:href="#27" y="28.223"/><use xlink:href="#30" y="34.736"/><use xlink:href="#31" y="36.907"/></svg><svg x="4128"><use xlink:href="#a"/><use xlink:href="#b" x="-.004" y="32.54"/><use xlink:href="#16"/><use xlink:href="#18" y="4.342"/><use xlink:href="#19" y="6.513"/><use xlink:href="#20" y="8.684"/><use xlink:href="#21" y="10.855"/><use xlink:href="#22" y="13.026"/><use xlink:href="#23" y="17.368"/><use xlink:href="#24" y="19.539"/><use xlink:href="#25" y="21.71"/><use xlink:href="#26" y="26.052"/><use xlink:href="#27" y="28.223"/><use xlink:href="#32" y="34.736"/><use xlink:href="#33" y="36.907"/></svg><svg x="4224"><use xlink:href="#a"/><use xlink:href="#b" x="-.004" y="32.54"/><use xlink:href="#16"/><use xlink:href="#18" y="4.342"/><use xlink:href="#19" y="6.513"/><use xlink:href="#20" y="8.684"/><use xlink:href="#21" y="10.855"/><use xlink:href="#22" y="13.026"/><use xlink:href="#23" y="17.368"/><use xlink:href="#24" y="19.539"/><use xlink:href="#25" y="21.71"/><use xlink:href="#26" y="26.052"/><use xlink:href="#27" y="28.223"/><use xlink:href="#34" y="34.736"/><use xlink:href="#35" y="36.907"/></svg><svg x="4320"><use xlink:href="#a"/><use xlink:href="#b" x="-.004" y="39.053"/><use xlink:href="#16"/><use xlink:href="#18" y="4.342"/><use xlink:href="#19" y="6.513"/><use xlink:href="#20" y="8.684"/><use xlink:href="#21" y="10.855"/><use xlink:href="#22" y="13.026"/><use xlink:href="#23" y="17.368"/><use xlink:href="#24" y="19.539"/><use xlink:href="#25" y="21.71"/><use xlink:href="#26" y="26.052"/><use xlink:href="#27" y="28.223"/><use xlink:href="#36" y="34.736"/><use xlink:href="#37" y="36.907"/></svg><svg x="4416"><use xlink:href="#a"/><use xlink:href="#b" x="-.004" y="39.053"/><use xlink:href="#16"/><use xlink:href="#18" y="4.342"/><use xlink:href="#19" y="6.513"/><use xlink:href="#20" y="8.684"/><use xlink:href="#21" y="10.855"/><use xlink:href="#22" y="13.026"/><use xlink:href="#23" y="17.368"/><use xlink:href="#24" y="19.539"/><use xlink:href="#25" y="21.71"/><use xlink:href="#26" y="26.052"/><use xlink:href="#27" y="28.223"/><use xlink:href="#36" y="34.736"/><use xlink:href="#37" y="36.907"/></svg><svg x="4512"><use xlink:href="#a"/><use xlink:href="#b" x="-.004" y="39.053"/><use xlink:href="#16"/><use xlink:href="#18" y="4.342"/><use xlink:href="#19" y="6.513"/><use xlink:href="#20" y="8.684"/><use xlink:href="#21" y="10.855"/><use xlink:href="#22" y="13.026"/><use xlink:href="#23" y="17.368"/><use xlink:href="#24" y="19.539"/><use xlink:href="#25" y="21.71"/><use xlink:href="#26" y="26.052"/><use xlink:href="#27" y="28.223"/><use xlink:href="#36" y="34.736"/><use xlink:href="#37" y="36.907"/></svg><svg x="4608"><use xlink:href="#a"/><use xlink:href="#b" x="1.996" y="39.053"/><use xlink:href="#16"/><use xlink:href="#18" y="4.342"/><use xlink:href="#19" y="6.513"/><use xlink:href="#20" y="8.684"/><use xlink:href="#21" y="10.855"/><use xlink:href="#22" y="13.026"/><use xlink:href="#23" y="17.368"/><use xlink:href="#24" y="19.539"/><use xlink:href="#25" y="21.71"/><use xlink:href="#26" y="26.052"/><use xlink:href="#27" y="28.223"/><use xlink:href="#36" y="34.736"/><use xlink:href="#37" y="36.907"/><use xlink:href="#1" y="39.078"/></svg><svg x="4704"><use xlink:href="#a"/><use xlink:href="#b" x="1.996" y="39.053"/><use xlink:href="#16"/><use xlink:href="#18" y="4.342"/><use xlink:href="#19" y="6.513"/><use xlink:href="#20" y="8.684"/><use xlink:href="#21" y="10.855"/><use xlink:href="#22" y="13.026"/><use xlink:href="#23" y="17.368"/><use xlink:href="#24" y="19.539"/><use xlink:href="#25" y="21.71"/><use xlink:href="#26" y="26.052"/><use xlink:href="#27" y="28.223"/><use xlink:href="#36" y="34.736"/><use xlink:href="#37" y="36.907"/><use xlink:href="#1" y="39.078"/></svg><svg x="4800"><use xlink:href="#a"/><use xlink:href="#b" x="1.996" y="39.053"/><use xlink:href="#16"/><use xlink:href="#18" y="4.342"/><use xlink:href="#19" y="6.513"/><use xlink:href="#20" y="8.684"/><use xlink:href="#21" y="10.855"/><use xlink:href="#22" y="13.026"/><use xlink:href="#23" y="17.368"/><use xlink:href="#24" y="19.539"/><use xlink:href="#25" y="21.71"/><use xlink:href="#26" y="26.052"/><use xlink:href="#27" y="28.223"/><use xlink:href="#36" y="34.736"/><use xlink:href="#37" y="36.907"/><use xlink:href="#1" y="39.078"/></svg><svg x="4896"><use xlink:href="#a"/><use xlink:href="#b" x="2.996" y="39.053"/><use xlink:href="#16"/><use xlink:href="#18" y="4.342"/><use xlink:href="#19" y="6.513"/><use xlink:href="#20" y="8.684"/><use xlink:href="#21" y="10.855"/><use xlink:href="#22" y="13.026"/><use xlink:href="#23" y="17.368"/><use xlink:href="#24" y="19.539"/><use xlink:href="#25" y="21.71"/><use xlink:href="#26" y="26.052"/><use xlink:href="#27" y="28.223"/><use xlink:href="#36" y="34.736"/><use xlink:href="#37" y="36.907"/><use xlink:href="#2" y="39.078"/></svg><svg x="4992"><use xlink:href="#a"/><use xlink:href="#b" x="3.996" y="39.053"/><use xlink:href="#16"/><use xlink:href="#18" y="4.342"/><use xlink:href="#19" y="6.513"/><use xlink:href="#20" y="8.684"/><use xlink:href="#21" y="10.855"/><use xlink:href="#22" y="13.026"/><use xlink:href="#23" y="17.368"/><use xlink:href="#24" y="19.539"/><use xlink:href="#25" y="21.71"/><use xlink:href="#26" y="26.052"/><use xlink:href="#27" y="28.223"/><use xlink:href="#36" y="34.736"/><use xlink:href="#37" y="36.907"/><use xlink:href="#3" y="39.078"/></svg><svg x="5088"><use xlink:href="#a"/><use xlink:href="#b" x="4.996" y="39.053"/><use xlink:href="#16"/><use xlink:href="#18" y="4.342"/><use xlink:href="#19" y="6.513"/><use xlink:href="#20" y="8.684"/><use xlink:href="#21" y="10.855"/><use xlink:href="#22" y="13.026"/><use xlink:href="#23" y="17.368"/><use xlink:href="#24" y="19.539"/><use xlink:href="#25" y="21.71"/><use xlink:href="#26" y="26.052"/><use xlink:href="#27" y="28.223"/><use xlink:href="#36" y="34.736"/><use xlink:href="#37" y="36.907"/><use xlink:href="#4" y="39.078"/></svg><svg x="5184"><use xlink:href="#a"/><use xlink:href="#b" x="5.996" y="39.053"/><use xlink:href="#16"/><use xlink:href="#18" y="4.342"/><use xlink:href="#19" y="6.513"/><use xlink:href="#20" y="8.684"/><use xlink:href="#21" y="10.855"/><use xlink:href="#22" y="13.026"/><use xlink:href="#23" y="17.368"/><use xlink:href="#24" y="19.539"/><use xlink:href="#25" y="21.71"/><use xlink:href="#26" y="26.052"/><use xlink:href="#27" y="28.223"/><use xlink:href="#36" y="34.736"/><use xlink:href="#37" y="36.907"/><use xlink:href="#4" y="39.078"/></svg><svg x="5280"><use xlink:href="#a"/><use xlink:href="#b" x="6.996" y="39.053"/><use xlink:href="#16"/><use xlink:href="#18" y="4.342"/><use xlink:href="#19" y="6.513"/><use xlink:href="#20" y="8.684"/><use xlink:href="#21" y="10.855"/><use xlink:href="#22" y="13.026"/><use xlink:href="#23" y="17.368"/><use xlink:href="#24" y="19.539"/><use xlink:href="#25" y="21.71"/><use xlink:href="#26" y="26.052"/><use xlink:href="#27" y="28.223"/><use xlink:href="#36" y="34.736"/><use xlink:href="#37" y="36.907"/><use xlink:href="#5" y="39.078"/></svg><svg x="5376"><use xlink:href="#a"/><use xlink:href="#b" x="7.996" y="39.053"/><use xlink:href="#16"/><use xlink:href="#18" y="4.342"/><use xlink:href="#19" y="6.513"/><use xlink:href="#20" y="8.684"/><use xlink:href="#21" y="10.855"/><use xlink:href="#22" y="13.026"/><use xlink:href="#23" y="17.368"/><use xlink:href="#24" y="19.539"/><use xlink:href="#25" y="21.71"/><use xlink:href="#26" y="26.052"/><use xlink:href="#27" y="28.223"/><use xlink:href="#36" y="34.736"/><use xlink:href="#37" y="36.907"/><use xlink:href="#6" y="39.078"/></svg><svg x="5472"><use xlink:href="#a"/><use xlink:href="#b" x="8.996" y="39.053"/><use xlink:href="#16"/><use xlink:href="#18" y="4.342"/><use xlink:href="#19" y="6.513"/><use xlink:href="#20" y="8.684"/><use xlink:href="#21" y="10.855"/><use xlink:href="#22" y="13.026"/><use xlink:href="#23" y="17.368"/><use xlink:href="#24" y="19.539"/><use xlink:href="#25" y="21.71"/><use xlink:href="#26" y="26.052"/><use xlink:href="#27" y="28.223"/><use xlink:href="#36" y="34.736"/><use xlink:href="#37" y="36.907"/><use xlink:href="#7" y="39.078"/></svg><svg x="5568"><use xlink:href="#a"/><use xlink:href="#b" x="9.996" y="39.053"/><use xlink:href="#16"/><use xlink:href="#18" y="4.342"/><use xlink:href="#19" y="6.513"/><use xlink:href="#20" y="8.684"/><use xlink:href="#21" y="10.855"/><use xlink:href="#22" y="13.026"/><use xlink:href="#23" y="17.368"/><use xlink:href="#24" y="19.539"/><use xlink:href="#25" y="21.71"/><use xlink:href="#26" y="26.052"/><use xlink:href="#27" y="28.223"/><use xlink:href="#36" y="34.736"/><use xlink:href="#37" y="36.907"/><use xlink:href="#7" y="39.078"/></svg><svg x="5664"><use xlink:href="#a"/><use xlink:href="#b" x="10.996" y="39.053"/><use xlink:href="#16"/><use xlink:href="#18" y="4.342"/><use xlink:href="#19" y="6.513"/><use xlink:href="#20" y="8.684"/><use xlink:href="#21" y="10.855"/><use xlink:href="#22" y="13.026"/><use xlink:href="#23" y="17.368"/><use xlink:href="#24" y="19.539"/><use xlink:href="#25" y="21.71"/><use xlink:href="#26" y="26.052"/><use xlink:href="#27" y="28.223"/><use xlink:href="#36" y="34.736"/><use xlink:href="#37" y="36.907"/><use xlink:href="#8" y="39.078"/></svg><svg x="5760"><use xlink:href="#a"/><use xlink:href="#b" x="11.996" y="39.053"/><use xlink:href="#16"/><use xlink:href="#18" y="4.342"/><use xlink:href="#19" y="6.513"/><use xlink:href="#20" y="8.684"/><use xlink:href="#21" y="10.855"/><use xlink:href="#22" y="13.026"/><use xlink:href="#23" y="17.368"/><use xlink:href="#24" y="19.539"/><use xlink:href="#25" y="21.71"/><use xlink:href="#26" y="26.052"/><use xlink:href="#27" y="28.223"/><use xlink:href="#36" y="34.736"/><use xlink:href="#37" y="36.907"/><use xlink:href="#9" y="39.078"/></svg><svg x="5856"><use xlink:href="#a"/><use xlink:href="#b" x="12.996" y="39.053"/><use xlink:href="#16"/><use xlink:href="#18" y="4.342"/><use xlink:href="#19" y="6.513"/><use xlink:href="#20" y="8.684"/><use xlink:href="#21" y="10.855"/><use xlink:href="#22" y="13.026"/><use xlink:href="#23" y="17.368"/><use xlink:href="#24" y="19.539"/><use xlink:href="#25" y="21.71"/><use xlink:href="#26" y="26.052"/><use xlink:href="#27" y="28.223"/><use xlink:href="#36" y="34.736"/><use xlink:href="#37" y="36.907"/><use xlink:href="#10" y="39.078"/></svg><svg x="5952"><use xlink:href="#a"/><use xlink:href="#b" x="13.996" y="39.053"/><use xlink:href="#16"/><use xlink:href="#18" y="4.342"/><use xlink:href="#19" y="6.513"/><use xlink:href="#20" y="8.684"/><use xlink:href="#21" y="10.855"/><use xlink:href="#22" y="13.026"/><use xlink:href="#23" y="17.368"/><use xlink:href="#24" y="19.539"/><use xlink:href="#25" y="21.71"/><use xlink:href="#26" y="26.052"/><use xlink:href="#27" y="28.223"/><use xlink:href="#36" y="34.736"/><use xlink:href="#37" y="36.907"/><use xlink:href="#11" y="39.078"/></svg><svg x="6048"><use xlink:href="#a"/><use xlink:href="#b" x="14.996" y="39.053"/><use xlink:href="#16"/><use xlink:href="#18" y="4.342"/><use xlink:href="#19" y="6.513"/><use xlink:href="#20" y="8.684"/><use xlink:href="#21" y="10.855"/><use xlink:href="#22" y="13.026"/><use xlink:href="#23" y="17.368"/><use xlink:href="#24" y="19.539"/><use xlink:href="#25" y="21.71"/><use xlink:href="#26" y="26.052"/><use xlink:href="#27" y="28.223"/><use xlink:href="#36" y="34.736"/><use xlink:href="#37" y="36.907"/><use xlink:href="#12" y="39.078"/></svg><svg x="6144"><use xlink:href="#a"/><use xlink:href="#b" x="15.996" y="39.053"/><use xlink:href="#16"/><use xlink:href="#18" y="4.342"/><use xlink:href="#19" y="6.513"/><use xlink:href="#20" y="8.684"/><use xlink:href="#21" y="10.855"/><use xlink:href="#22" y="13.026"/><use xlink:href="#23" y="17.368"/><use xlink:href="#24" y="19.539"/><use xlink:href="#25" y="21.71"/><use xlink:href="#26" y="26.052"/><use xlink:href="#27" y="28.223"/><use xlink:href="#36" y="34.736"/><use xlink:href="#37" y="36.907"/><use xlink:href="#13" y="39.078"/></svg><svg x="6240"><use xlink:href="#a"/><use xlink:href="#b" x="16.996" y="39.053"/><use xlink:href="#16"/><use xlink:href="#18" y="4.342"/><use xlink:href="#19" y="6.513"/><use xlink:href="#20" y="8.684"/><use xlink:href="#21" y="10.855"/><use xlink:href="#22" y="13.026"/><use xlink:href="#23" y="17.368"/><use xlink:href="#24" y="19.539"/><use xlink:href="#25" y="21.71"/><use xlink:href="#26" y="26.052"/><use xlink:href="#27" y="28.223"/><use xlink:href="#36" y="34.736"/><use xlink:href="#37" y="36.907"/><use xlink:href="#14" y="39.078"/></svg><svg x="6336"><use xlink:href="#a"/><use xlink:href="#b" x="17.996" y="39.053"/><use xlink:href="#16"/><use xlink:href="#18" y="4.342"/><use xlink:href="#19" y="6.513"/><use xlink:href="#20" y="8.684"/><use xlink:href="#21" y="10.855"/><use xlink:href="#22" y="13.026"/><use xlink:href="#23" y="17.368"/><use xlink:href="#24" y="19.539"/><use xlink:href="#25" y="21.71"/><use xlink:href="#26" y="26.052"/><use xlink:href="#27" y="28.223"/><use xlink:href="#36" y="34.736"/><use xlink:href="#37" y="36.907"/><use xlink:href="#15" y="39.078"/></svg><svg x="6432"><use xlink:href="#a"/><use xlink:href="#b" x="18.996" y="39.053"/><use xlink:href="#16"/><use xlink:href="#18" y="4.342"/><use xlink:href="#19" y="6.513"/><use xlink:href="#20" y="8.684"/><use xlink:href="#21" y="10.855"/><use xlink:href="#22" y="13.026"/><use xlink:href="#23" y="17.368"/><use xlink:href="#24" y="19.539"/><use xlink:href="#25" y="21.71"/><use xlink:href="#26" y="26.052"/><use xlink:href="#27" y="28.223"/><use xlink:href="#36" y="34.736"/><use xlink:href="#37" y="36.907"/><use xlink:href="#16" y="39.078"/></svg><svg x="6528"><use xlink:href="#a"/><use xlink:href="#b" x="-.004" y="41.224"/><use xlink:href="#16"/><use xlink:href="#18" y="4.342"/><use xlink:href="#19" y="6.513"/><use xlink:href="#20" y="8.684"/><use xlink:href="#21" y="10.855"/><use xlink:href="#22" y="13.026"/><use xlink:href="#23" y="17.368"/><use xlink:href="#24" y="19.539"/><use xlink:href="#25" y="21.71"/><use xlink:href="#26" y="26.052"/><use xlink:href="#27" y="28.223"/><use xlink:href="#36" y="34.736"/><use xlink:href="#37" y="36.907"/><use xlink:href="#16" y="39.078"/></svg><svg x="6624"><use xlink:href="#a"/><use xlink:href="#b" x="-.004" y="41.224"/><use xlink:href="#16"/><use xlink:href="#18" y="4.342"/><use xlink:href="#19" y="6.513"/><use xlink:href="#20" y="8.684"/><use xlink:href="#21" y="10.855"/><use xlink:href="#22" y="13.026"/><use xlink:href="#23" y="17.368"/><use xlink:href="#24" y="19.539"/><use xlink:href="#25" y="21.71"/><use xlink:href="#26" y="26.052"/><use xlink:href="#27" y="28.223"/><use xlink:href="#36" y="34.736"/><use xlink:href="#37" y="36.907"/><use xlink:href="#16" y="39.078"/></svg><svg x="6720"><use xlink:href="#a"/><use xlink:href="#16"/><use xlink:href="#18" y="4.342"/><use xlink:href="#19" y="6.513"/><use xlink:href="#20" y="8.684"/><use xlink:href="#21" y="10.855"/><use xlink:href="#22" y="13.026"/><use xlink:href="#23" y="17.368"/><use xlink:href="#24" y="19.539"/><use xlink:href="#25" y="21.71"/><use xlink:href="#26" y="26.052"/><use xlink:href="#27" y="28.223"/><use xlink:href="#36" y="34.736"/><use xlink:href="#37" y="36.907"/><use xlink:href="#16" y="39.078"/></svg><svg x="6816"><use xlink:href="#a"/><use xlink:href="#16"/><use xlink:href="#18" y="4.342"/><use xlink:href="#19" y="6.513"/><use xlink:href="#20" y="8.684"/><use xlink:href="#21" y="10.855"/><use xlink:href="#22" y="13.026"/><use xlink:href="#23" y="17.368"/><use xlink:href="#24" y="19.539"/><use xlink:href="#25" y="21.71"/><use xlink:href="#26" y="26.052"/><use xlink:href="#27" y="28.223"/><use xlink:href="#36" y="34.736"/><use xlink:href="#37" y="36.907"/><use xlink:href="#16" y="39.078"/><use xlink:href="#17" y="41.249"/></svg><svg x="6912"><use xlink:href="#a"/><use xlink:href="#b" x="-.004" y="41.224"/><use xlink:href="#16"/><use xlink:href="#18" y="4.342"/><use xlink:href="#19" y="6.513"/><use xlink:href="#20" y="8.684"/><use xlink:href="#21" y="10.855"/><use xlink:href="#22" y="13.026"/><use xlink:href="#23" y="17.368"/><use xlink:href="#24" y="19.539"/><use xlink:href="#25" y="21.71"/><use xlink:href="#26" y="26.052"/><use xlink:href="#27" y="28.223"/><use xlink:href="#36" y="34.736"/><use xlink:href="#37" y="36.907"/><use xlink:href="#16" y="39.078"/></svg><svg x="7008"><use xlink:href="#a"/><use xlink:href="#b" x="-.004" y="52.079"/><use xlink:href="#18"/><use xlink:href="#19" y="2.171"/><use xlink:href="#20" y="4.342"/><use xlink:href="#21" y="6.513"/><use xlink:href="#22" y="8.684"/><use xlink:href="#23" y="13.026"/><use xlink:href="#24" y="15.197"/><use xlink:href="#25" y="17.368"/><use xlink:href="#26" y="21.71"/><use xlink:href="#27" y="23.881"/><use xlink:href="#36" y="30.394"/><use xlink:href="#37" y="32.565"/><use xlink:href="#16" y="34.736"/><use xlink:href="#18" y="39.078"/><use xlink:href="#19" y="41.249"/><use xlink:href="#20" y="43.42"/><use xlink:href="#21" y="45.591"/><use xlink:href="#22" y="47.762"/></svg><svg x="7104"><use xlink:href="#a"/><use xlink:href="#b" x="-.004" y="52.079"/><use xlink:href="#24"/><use xlink:href="#25" y="2.171"/><use xlink:href="#26" y="6.513"/><use xlink:href="#27" y="8.684"/><use xlink:href="#36" y="15.197"/><use xlink:href="#37" y="17.368"/><use xlink:href="#16" y="19.539"/><use xlink:href="#18" y="23.881"/><use xlink:href="#19" y="26.052"/><use xlink:href="#20" y="28.223"/><use xlink:href="#21" y="30.394"/><use xlink:href="#22" y="32.565"/><use xlink:href="#23" y="36.907"/><use xlink:href="#24" y="39.078"/><use xlink:href="#25" y="41.249"/><use xlink:href="#26" y="45.591"/><use xlink:href="#27" y="47.762"/></svg><svg x="7200"><use xlink:href="#a"/><use xlink:href="#b" x="-.004" y="45.566"/><use xlink:href="#26"/><use xlink:href="#27" y="2.171"/><use xlink:href="#36" y="8.684"/><use xlink:href="#37" y="10.855"/><use xlink:href="#16" y="13.026"/><use xlink:href="#18" y="17.368"/><use xlink:href="#19" y="19.539"/><use xlink:href="#20" y="21.71"/><use xlink:href="#21" y="23.881"/><use xlink:href="#22" y="26.052"/><use xlink:href="#23" y="30.394"/><use xlink:href="#24" y="32.565"/><use xlink:href="#25" y="34.736"/><use xlink:href="#26" y="39.078"/><use xlink:href="#27" y="41.249"/><use xlink:href="#28" y="47.762"/><use xlink:href="#29" y="49.933"/></svg><svg x="7296"><use xlink:href="#a"/><use xlink:href="#b" x="-.004" y="45.566"/><use xlink:href="#26"/><use xlink:href="#27" y="2.171"/><use xlink:href="#36" y="8.684"/><use xlink:href="#37" y="10.855"/><use xlink:href="#16" y="13.026"/><use xlink:href="#18" y="17.368"/><use xlink:href="#19" y="19.539"/><use xlink:href="#20" y="21.71"/><use xlink:href="#21" y="23.881"/><use xlink:href="#22" y="26.052"/><use xlink:href="#23" y="30.394"/><use xlink:href="#24" y="32.565"/><use xlink:href="#25" y="34.736"/><use xlink:href="#26" y="39.078"/><use xlink:href="#27" y="41.249"/><use xlink:href="#30" y="47.762"/><use xlink:href="#31" y="49.933"/></svg><svg x="7392"><use xlink:href="#a"/><use xlink:href="#b" x="-.004" y="45.566"/><use xlink:href="#26"/><use xlink:href="#27" y="2.171"/><use xlink:href="#36" y="8.684"/><use xlink:href="#37" y="10.855"/><use xlink:href="#16" y="13.026"/><use xlink:href="#18" y="17.368"/><use xlink:href="#19" y="19.539"/><use xlink:href="#20" y="21.71"/><use xlink:href="#21" y="23.881"/><use xlink:href="#22" y="26.052"/><use xlink:href="#23" y="30.394"/><use xlink:href="#24" y="32.565"/><use xlink:href="#25" y="34.736"/><use xlink:href="#26" y="39.078"/><use xlink:href="#27" y="41.249"/><use xlink:href="#32" y="47.762"/><use xlink:href="#33" y="49.933"/></svg><svg x="7488"><use xlink:href="#a"/><use xlink:href="#b" x="-.004" y="45.566"/><use xlink:href="#26"/><use xlink:href="#27" y="2.171"/><use xlink:href="#36" y="8.684"/><use xlink:href="#37" y="10.855"/><use xlink:href="#16" y="13.026"/><use xlink:href="#18" y="17.368"/><use xlink:href="#19" y="19.539"/><use xlink:href="#20" y="21.71"/><use xlink:href="#21" y="23.881"/><use xlink:href="#22" y="26.052"/><use xlink:href="#23" y="30.394"/><use xlink:href="#24" y="32.565"/><use xlink:href="#25" y="34.736"/><use xlink:href="#26" y="39.078"/><use xlink:href="#27" y="41.249"/><use xlink:href="#34" y="47.762"/><use xlink:href="#35" y="49.933"/></svg><svg x="7584"><use xlink:href="#a"/><use xlink:href="#b" x="-.004" y="52.079"/><use xlink:href="#26"/><use xlink:href="#27" y="2.171"/><use xlink:href="#36" y="8.684"/><use xlink:href="#37" y="10.855"/><use xlink:href="#16" y="13.026"/><use xlink:href="#18" y="17.368"/><use xlink:href="#19" y="19.539"/><use xlink:href="#20" y="21.71"/><use xlink:href="#21" y="23.881"/><use xlink:href="#22" y="26.052"/><use xlink:href="#23" y="30.394"/><use xlink:href="#24" y="32.565"/><use xlink:href="#25" y="34.736"/><use xlink:href="#26" y="39.078"/><use xlink:href="#27" y="41.249"/><use xlink:href="#36" y="47.762"/><use xlink:href="#37" y="49.933"/></svg><svg x="7680"><use xlink:href="#a"/><use xlink:href="#b" x="-.004" y="52.079"/><use xlink:href="#26"/><use xlink:href="#27" y="2.171"/><use xlink:href="#36" y="8.684"/><use xlink:href="#37" y="10.855"/><use xlink:href="#16" y="13.026"/><use xlink:href="#18" y="17.368"/><use xlink:href="#19" y="19.539"/><use xlink:href="#20" y="21.71"/><use xlink:href="#21" y="23.881"/><use xlink:href="#22" y="26.052"/><use xlink:href="#23" y="30.394"/><use xlink:href="#24" y="32.565"/><use xlink:href="#25" y="34.736"/><use xlink:href="#26" y="39.078"/><use xlink:href="#27" y="41.249"/><use xlink:href="#36" y="47.762"/><use xlink:href="#37" y="49.933"/></svg><svg x="7776"><use xlink:href="#a"/><use xlink:href="#b" x="-.004" y="52.079"/><use xlink:href="#26"/><use xlink:href="#27" y="2.171"/><use xlink:href="#36" y="8.684"/><use xlink:href="#37" y="10.855"/><use xlink:href="#16" y="13.026"/><use xlink:href="#18" y="17.368"/><use xlink:href="#19" y="19.539"/><use xlink:href="#20" y="21.71"/><use xlink:href="#21" y="23.881"/><use xlink:href="#22" y="26.052"/><use xlink:href="#23" y="30.394"/><use xlink:href="#24" y="32.565"/><use xlink:href="#25" y="34.736"/><use xlink:href="#26" y="39.078"/><use xlink:href="#27" y="41.249"/><use xlink:href="#36" y="47.762"/><use xlink:href="#37" y="49.933"/></svg><svg x="7872"><use xlink:href="#a"/><use xlink:href="#b" x="-.004" y="52.079"/><use xlink:href="#26"/><use xlink:href="#27" y="2.171"/><use xlink:href="#36" y="8.684"/><use xlink:href="#37" y="10.855"/><use xlink:href="#16" y="13.026"/><use xlink:href="#18" y="17.368"/><use xlink:href="#19" y="19.539"/><use xlink:href="#20" y="21.71"/><use xlink:href="#21" y="23.881"/><use xlink:href="#22" y="26.052"/><use xlink:href="#23" y="30.394"/><use xlink:href="#24" y="32.565"/><use xlink:href="#25" y="34.736"/><use xlink:href="#26" y="39.078"/><use xlink:href="#27" y="41.249"/><use xlink:href="#36" y="47.762"/><use xlink:href="#37" y="49.933"/></svg><svg x="7968"><use xlink:href="#a"/><use xlink:href="#b" x="1.996" y="52.079"/><use xlink:href="#26"/><use xlink:href="#27" y="2.171"/><use xlink:href="#36" y="8.684"/><use xlink:href="#37" y="10.855"/><use xlink:href="#16" y="13.026"/><use xlink:href="#18" y="17.368"/><use xlink:href="#19" y="19.539"/><use xlink:href="#20" y="21.71"/><use xlink:href="#21" y="23.881"/><use xlink:href="#22" y="26.052"/><use xlink:href="#23" y="30.394"/><use xlink:href="#24" y="32.565"/><use xlink:href="#25" y="34.736"/><use xlink:href="#26" y="39.078"/><use xlink:href="#27" y="41.249"/><use xlink:href="#36" y="47.762"/><use xlink:href="#37" y="49.933"/><use xlink:href="#1" y="52.104"/></svg><svg x="8064"><use xlink:href="#a"/><use xlink:href="#b" x="-.004" y="52.079"/><use xlink:href="#27"/><use xlink:href="#36" y="6.513"/><use xlink:href="#37" y="8.684"/><use xlink:href="#16" y="10.855"/><use xlink:href="#18" y="15.197"/><use xlink:href="#19" y="17.368"/><use xlink:href="#20" y="19.539"/><use xlink:href="#21" y="21.71"/><use xlink:href="#22" y="23.881"/><use xlink:href="#23" y="28.223"/><use xlink:href="#24" y="30.394"/><use xlink:href="#25" y="32.565"/><use xlink:href="#26" y="36.907"/><use xlink:href="#27" y="39.078"/><use xlink:href="#36" y="45.591"/><use xlink:href="#37" y="47.762"/><use xlink:href="#1" y="49.933"/></svg></svg></g></g></svg></svg>